<?xml version="1.0" encoding="UTF-8" standalone="no"?>
<!DOCTYPE svg PUBLIC "-//W3C//DTD SVG 1.1//EN" "http://www.w3.org/Graphics/SVG/1.1/DTD/svg11.dtd">
<!-- Generiert durch Microsoft Visio, SVG Export 5_star_operator_irregular.svg Page-1 -->
<svg xmlns="http://www.w3.org/2000/svg" xmlns:xlink="http://www.w3.org/1999/xlink" xmlns:ev="http://www.w3.org/2001/xml-events"
		xmlns:v="http://schemas.microsoft.com/visio/2003/SVGExtensions/" width="8.26772in" height="11.6929in"
		viewBox="0 0 595.276 841.89" xml:space="preserve" color-interpolation-filters="sRGB" class="st7">
	<v:documentProperties v:langID="1033" v:metric="true" v:viewMarkup="false">
		<v:userDefs>
			<v:ud v:nameU="msvNoAutoConnect" v:val="VT0(1):26"/>
		</v:userDefs>
	</v:documentProperties>

	<style type="text/css">
	<![CDATA[
		.st1 {stroke:#0070c0;stroke-linecap:round;stroke-linejoin:round;stroke-width:0.25}
		.st2 {fill:#002060;stroke:none;stroke-linecap:round;stroke-linejoin:round;stroke-width:0.25}
		.st3 {fill:none;stroke:none;stroke-linecap:round;stroke-linejoin:round;stroke-width:0.75}
		.st4 {fill:#000000;font-family:CMU Serif;font-size:0.833336em;font-style:italic}
		.st5 {baseline-shift:-33.3489%;font-size:0.666978em}
		.st6 {fill:#000000;stroke:none;stroke-linecap:butt;stroke-width:1}
		.st7 {fill:none;fill-rule:evenodd;font-size:12px;overflow:visible;stroke-linecap:square;stroke-miterlimit:3}
	]]>
	</style>

	<g v:mID="0" v:index="1" v:groupContext="foregroundPage">
		<title>Zeichenblatt-1</title>
		<v:pageProperties v:drawingScale="0.0393701" v:pageScale="0.0393701" v:drawingUnits="24" v:shadowOffsetX="8.50394"
				v:shadowOffsetY="-8.50394"/>
		<g id="shape1-1" v:mID="1" v:groupContext="shape" transform="translate(-742.677,93.5433) rotate(-90)">
			<title>Tabelle.1</title>
			<path d="M0 841.89 L45.35 841.89" class="st1"/>
		</g>
		<g id="shape2-4" v:mID="2" v:groupContext="shape" transform="translate(56.6929,-771.024)">
			<title>Tabelle.2</title>
			<path d="M0 841.89 L85.04 841.89" class="st1"/>
		</g>
		<g id="shape3-7" v:mID="3" v:groupContext="shape" transform="translate(97.7953,-746.929)">
			<title>Tabelle.3</title>
			<ellipse cx="1.41732" cy="840.472" rx="1.41732" ry="1.41732" class="st2"/>
		</g>
		<g id="shape4-9" v:mID="4" v:groupContext="shape" transform="translate(55.2756,-769.606)">
			<title>Tabelle.4</title>
			<ellipse cx="1.41732" cy="840.472" rx="1.41732" ry="1.41732" class="st2"/>
		</g>
		<g id="shape5-11" v:mID="5" v:groupContext="shape" transform="translate(97.7953,-769.606)">
			<title>Tabelle.5</title>
			<ellipse cx="1.41732" cy="840.472" rx="1.41732" ry="1.41732" class="st2"/>
		</g>
		<g id="shape6-13" v:mID="6" v:groupContext="shape" transform="translate(140.315,-769.606)">
			<title>Tabelle.6</title>
			<ellipse cx="1.41732" cy="840.472" rx="1.41732" ry="1.41732" class="st2"/>
		</g>
		<g id="shape7-15" v:mID="7" v:groupContext="shape" transform="translate(97.7953,-792.283)">
			<title>Tabelle.7</title>
			<ellipse cx="1.41732" cy="840.472" rx="1.41732" ry="1.41732" class="st2"/>
		</g>
		<g id="shape8-17" v:mID="8" v:groupContext="shape" transform="translate(90.7087,-796.535)">
			<title>Tabelle.8</title>
			<desc>PN</desc>
			<v:textBlock v:margins="rect(0,0,0,0)" v:tabSpace="42.5197"/>
			<v:textRect cx="8.50394" cy="836.22" width="17.01" height="11.3386"/>
			<rect x="0" y="830.551" width="17.0079" height="11.3386" class="st3"/>
			<text x="2.64" y="839.22" class="st4" v:langID="1033"><v:paragraph v:horizAlign="1"/><v:tabList/>P<tspan dy="-0.289em"
						class="st5" v:baseFontSize="10">N</tspan></text>		</g>
		<g id="shape9-21" v:mID="9" v:groupContext="shape" transform="translate(133.228,-773.858)">
			<title>Tabelle.9</title>
			<desc>PE</desc>
			<v:textBlock v:margins="rect(0,0,0,0)" v:tabSpace="42.5197"/>
			<v:textRect cx="8.50394" cy="836.22" width="17.01" height="11.3386"/>
			<rect x="0" y="830.551" width="17.0079" height="11.3386" class="st3"/>
			<text x="2.84" y="839.22" class="st4" v:langID="1033"><v:paragraph v:horizAlign="1"/><v:tabList/>P<tspan dy="-0.289em"
						class="st5" v:baseFontSize="10">E</tspan></text>		</g>
		<g id="shape10-25" v:mID="10" v:groupContext="shape" transform="translate(90.7087,-734.173)">
			<title>Tabelle.10</title>
			<desc>PS</desc>
			<v:textBlock v:margins="rect(0,0,0,0)" v:tabSpace="42.5197"/>
			<v:textRect cx="8.50394" cy="836.22" width="17.01" height="11.3386"/>
			<rect x="0" y="830.551" width="17.0079" height="11.3386" class="st3"/>
			<text x="3.23" y="839.22" class="st4" v:langID="1033"><v:paragraph v:horizAlign="1"/><v:tabList/>P<tspan dy="-0.289em"
						class="st5" v:baseFontSize="10">S</tspan></text>		</g>
		<g id="shape11-29" v:mID="11" v:groupContext="shape" transform="translate(48.189,-773.858)">
			<title>Tabelle.11</title>
			<desc>PW</desc>
			<v:textBlock v:margins="rect(0,0,0,0)" v:tabSpace="42.5197"/>
			<v:textRect cx="8.50394" cy="836.22" width="17.01" height="11.3386"/>
			<rect x="0" y="830.551" width="17.0079" height="11.3386" class="st3"/>
			<text x="1.78" y="839.22" class="st4" v:langID="1033"><v:paragraph v:horizAlign="1"/><v:tabList/>P<tspan dy="-0.289em"
						class="st5" v:baseFontSize="10">W</tspan></text>		</g>
		<g id="shape12-33" v:mID="12" v:groupContext="shape" transform="translate(79.3701,-773.858)">
			<title>Tabelle.12</title>
			<desc>PC</desc>
			<v:textBlock v:margins="rect(0,0,0,0)" v:tabSpace="42.5197"/>
			<v:textRect cx="8.50394" cy="836.22" width="17.01" height="11.3386"/>
			<rect x="0" y="830.551" width="17.0079" height="11.3386" class="st3"/>
			<text x="2.73" y="839.22" class="st4" v:langID="1033"><v:paragraph v:horizAlign="1"/><v:tabList/>P<tspan dy="-0.289em"
						class="st5" v:baseFontSize="10">C</tspan></text>		</g>
		<g id="group622-37" transform="translate(59.5276,-763.217)" v:mID="622" v:groupContext="group">
			<title>Tabelle.622</title>
			<g id="group274-38" v:mID="274" v:groupContext="group">
				<title>Tabelle.274</title>
				<g id="shape275-39" v:mID="275" v:groupContext="shape">
					<title>path229740</title>
					<path d="M4.02 838.63 C4.07 838.43 4.16 838.09 4.16 838.03 C4.16 837.86 4.03 837.78 3.9 837.78 C3.78 837.78 3.62
								 837.86 3.55 838.05 C3.52 838.11 3.09 839.88 3.02 840.12 C2.95 840.4 2.94 840.57 2.94 840.73 C2.94
								 840.84 2.94 840.85 2.95 840.91 C2.73 841.4 2.46 841.68 2.09 841.68 C1.34 841.68 1.34 841 1.34 840.84
								 C1.34 840.53 1.4 840.17 1.84 839.03 C1.93 838.75 1.99 838.63 1.99 838.45 C1.99 838.02 1.69 837.67
								 1.22 837.67 C0.35 837.67 0 839.03 0 839.11 C0 839.2 0.09 839.2 0.12 839.2 C0.21 839.2 0.21 839.19
								 0.27 839.03 C0.52 838.17 0.88 837.89 1.2 837.89 C1.29 837.89 1.44 837.9 1.44 838.19 C1.44 838.42
								 1.33 838.69 1.26 838.84 C0.85 839.94 0.74 840.36 0.74 840.72 C0.74 841.56 1.37 841.89 2.06 841.89
								 C2.22 841.89 2.66 841.89 3.03 841.24 C3.27 841.82 3.91 841.89 4.19 841.89 C4.88 841.89 5.29 841.3
								 5.53 840.75 C5.85 840.01 6.14 838.78 6.14 838.33 C6.14 837.82 5.89 837.67 5.74 837.67 C5.51 837.67
								 5.28 837.93 5.28 838.13 C5.28 838.25 5.33 838.3 5.41 838.38 C5.52 838.49 5.74 838.72 5.74 839.16
								 C5.74 839.48 5.48 840.39 5.24 840.87 C5 841.36 4.67 841.68 4.22 841.68 C3.78 841.68 3.52 841.4 3.52
								 840.88 C3.52 840.61 3.59 840.32 3.63 840.2 L4.02 838.63 Z" class="st6"/>
				</g>
			</g>
			<g id="group276-41" transform="translate(9.49076,-1.94143)" v:mID="276" v:groupContext="group">
				<title>Tabelle.276</title>
				<g id="shape277-42" v:mID="277" v:groupContext="shape">
					<title>path229710</title>
					<path d="M0.98 841.41 C0.98 841.13 0.76 840.92 0.49 840.92 C0.23 840.92 0 841.13 0 841.41 C0 841.68 0.23 841.89
								 0.49 841.89 C0.76 841.89 0.98 841.68 0.98 841.41 Z" class="st6"/>
				</g>
			</g>
			<g id="group278-44" transform="translate(13.8406,0)" v:mID="278" v:groupContext="group">
				<title>Tabelle.278</title>
				<g id="shape279-45" v:mID="279" v:groupContext="shape">
					<title>path229728</title>
					<path d="M2.15 835.44 C2.15 835.44 2.15 835.35 2.03 835.35 C1.82 835.35 1.14 835.41 0.9 835.44 C0.84 835.44 0.73
								 835.45 0.73 835.63 C0.73 835.73 0.81 835.73 0.96 835.73 C1.4 835.73 1.41 835.8 1.41 835.89 L1.38
								 836.08 L0.04 841.42 C0 841.56 0 841.57 0 841.62 C0 841.84 0.19 841.89 0.28 841.89 C0.43 841.89 0.57
								 841.77 0.61 841.65 L0.8 840.93 L1 840.11 C1.05 839.9 1.1 839.7 1.16 839.48 C1.17 839.43 1.25 839.12
								 1.26 839.06 C1.29 838.98 1.57 838.46 1.89 838.21 C2.09 838.06 2.38 837.89 2.78 837.89 C3.18 837.89
								 3.28 838.21 3.28 838.54 C3.28 839.03 2.93 840.04 2.71 840.61 C2.63 840.83 2.58 840.93 2.58 841.12
								 C2.58 841.56 2.91 841.89 3.35 841.89 C4.22 841.89 4.56 840.53 4.56 840.45 C4.56 840.36 4.48 840.36
								 4.45 840.36 C4.36 840.36 4.36 840.39 4.31 840.53 C4.18 841.03 3.87 841.68 3.36 841.68 C3.2 841.68
								 3.14 841.58 3.14 841.37 C3.14 841.15 3.23 840.92 3.31 840.72 C3.46 840.32 3.87 839.22 3.87 838.67
								 C3.87 838.07 3.51 837.67 2.81 837.67 C2.22 837.67 1.78 837.97 1.44 838.39 L2.15 835.44 Z"
							class="st6"/>
				</g>
			</g>
		</g>
		<g id="group623-47" transform="translate(102.047,-751.181)" v:mID="623" v:groupContext="group">
			<title>Tabelle.623</title>
			<g id="group280-48" v:mID="280" v:groupContext="group">
				<title>Tabelle.280</title>
				<g id="shape281-49" v:mID="281" v:groupContext="shape">
					<title>path229743</title>
					<path d="M3.15 838.31 C2.89 838.33 2.7 838.53 2.7 838.72 C2.7 838.86 2.79 839 2.99 839 C3.19 839 3.42 838.84
								 3.42 838.49 C3.42 838.06 3.02 837.67 2.31 837.67 C1.09 837.67 0.74 838.63 0.74 839.03 C0.74 839.76
								 1.44 839.9 1.7 839.95 C2.18 840.04 2.67 840.15 2.67 840.67 C2.67 840.91 2.46 841.68 1.34 841.68
								 C1.21 841.68 0.49 841.68 0.28 841.18 C0.64 841.24 0.86 840.96 0.86 840.69 C0.86 840.48 0.72 840.37
								 0.52 840.37 C0.28 840.37 0 840.57 0 840.99 C0 841.52 0.53 841.89 1.33 841.89 C2.83 841.89 3.19 840.76
								 3.19 840.35 C3.19 840.01 3.02 839.78 2.91 839.67 C2.66 839.4 2.39 839.36 1.98 839.28 C1.65 839.2
								 1.28 839.14 1.28 838.72 C1.28 838.45 1.5 837.89 2.31 837.89 C2.55 837.89 3.01 837.95 3.15 838.31
								 Z" class="st6"/>
				</g>
			</g>
			<g id="group282-51" transform="translate(6.73348,-1.94143)" v:mID="282" v:groupContext="group">
				<title>Tabelle.282</title>
				<g id="shape283-52" v:mID="283" v:groupContext="shape">
					<title>path229710</title>
					<path d="M0.98 841.41 C0.98 841.13 0.76 840.92 0.49 840.92 C0.23 840.92 0 841.13 0 841.41 C0 841.68 0.23 841.89
								 0.49 841.89 C0.76 841.89 0.98 841.68 0.98 841.41 Z" class="st6"/>
				</g>
			</g>
			<g id="group284-54" transform="translate(11.0833,0)" v:mID="284" v:groupContext="group">
				<title>Tabelle.284</title>
				<g id="shape285-55" v:mID="285" v:groupContext="shape">
					<title>path229728</title>
					<path d="M2.15 835.44 C2.15 835.44 2.15 835.35 2.03 835.35 C1.82 835.35 1.14 835.41 0.9 835.44 C0.84 835.44 0.73
								 835.45 0.73 835.63 C0.73 835.73 0.81 835.73 0.96 835.73 C1.4 835.73 1.41 835.8 1.41 835.89 L1.38
								 836.08 L0.04 841.42 C0 841.56 0 841.57 0 841.62 C0 841.84 0.19 841.89 0.28 841.89 C0.43 841.89 0.57
								 841.77 0.61 841.65 L0.8 840.93 L1 840.11 C1.05 839.9 1.1 839.7 1.16 839.48 C1.17 839.43 1.25 839.12
								 1.26 839.06 C1.29 838.98 1.57 838.46 1.89 838.21 C2.09 838.06 2.38 837.89 2.78 837.89 C3.18 837.89
								 3.28 838.21 3.28 838.54 C3.28 839.03 2.93 840.04 2.71 840.61 C2.63 840.83 2.58 840.93 2.58 841.12
								 C2.58 841.56 2.91 841.89 3.35 841.89 C4.22 841.89 4.56 840.53 4.56 840.45 C4.56 840.36 4.48 840.36
								 4.45 840.36 C4.36 840.36 4.36 840.39 4.31 840.53 C4.18 841.03 3.87 841.68 3.36 841.68 C3.2 841.68
								 3.14 841.58 3.14 841.37 C3.14 841.15 3.23 840.92 3.31 840.72 C3.46 840.32 3.87 839.22 3.87 838.67
								 C3.87 838.07 3.51 837.67 2.81 837.67 C2.22 837.67 1.78 837.97 1.44 838.39 L2.15 835.44 Z"
							class="st6"/>
				</g>
			</g>
		</g>
		<g id="group624-57" transform="translate(102.047,-784.324)" v:mID="624" v:groupContext="group">
			<title>Tabelle.624</title>
			<g id="group286-58" v:mID="286" v:groupContext="group">
				<title>Tabelle.286</title>
				<g id="shape287-59" v:mID="287" v:groupContext="shape">
					<title>path229746</title>
					<path d="M1.32 839.64 C1.58 839.64 2.26 839.62 2.73 839.43 C3.38 839.15 3.43 838.61 3.43 838.47 C3.43 838.06
								 3.07 837.67 2.43 837.67 C1.41 837.67 0 838.58 0 840.2 C0 841.16 0.55 841.89 1.46 841.89 C2.79 841.89
								 3.56 840.91 3.56 840.79 C3.56 840.73 3.51 840.67 3.46 840.67 C3.4 840.67 3.39 840.69 3.34 840.76
								 C2.61 841.68 1.58 841.68 1.48 841.68 C0.76 841.68 0.66 840.91 0.66 840.6 C0.66 840.49 0.68 840.2
								 0.82 839.64 L1.32 839.64 ZM0.88 839.43 C1.24 838.02 2.19 837.89 2.43 837.89 C2.87 837.89 3.12 838.15
								 3.12 838.47 C3.12 839.43 1.64 839.43 1.25 839.43 L0.88 839.43 Z" class="st6"/>
				</g>
			</g>
			<g id="group288-61" transform="translate(6.75771,-1.94143)" v:mID="288" v:groupContext="group">
				<title>Tabelle.288</title>
				<g id="shape289-62" v:mID="289" v:groupContext="shape">
					<title>path229710</title>
					<path d="M0.98 841.41 C0.98 841.13 0.76 840.92 0.49 840.92 C0.23 840.92 0 841.13 0 841.41 C0 841.68 0.23 841.89
								 0.49 841.89 C0.76 841.89 0.98 841.68 0.98 841.41 Z" class="st6"/>
				</g>
			</g>
			<g id="group290-64" transform="translate(11.1067,0)" v:mID="290" v:groupContext="group">
				<title>Tabelle.290</title>
				<g id="shape291-65" v:mID="291" v:groupContext="shape">
					<title>path229728</title>
					<path d="M2.15 835.44 C2.15 835.44 2.15 835.35 2.03 835.35 C1.82 835.35 1.14 835.41 0.9 835.44 C0.84 835.44 0.73
								 835.45 0.73 835.63 C0.73 835.73 0.81 835.73 0.96 835.73 C1.4 835.73 1.41 835.8 1.41 835.89 L1.38
								 836.08 L0.04 841.42 C0 841.56 0 841.57 0 841.62 C0 841.84 0.19 841.89 0.28 841.89 C0.43 841.89 0.57
								 841.77 0.61 841.65 L0.8 840.93 L1 840.11 C1.05 839.9 1.1 839.7 1.16 839.48 C1.17 839.43 1.25 839.12
								 1.26 839.06 C1.29 838.98 1.57 838.46 1.89 838.21 C2.09 838.06 2.38 837.89 2.78 837.89 C3.18 837.89
								 3.28 838.21 3.28 838.54 C3.28 839.03 2.93 840.04 2.71 840.61 C2.63 840.83 2.58 840.93 2.58 841.12
								 C2.58 841.56 2.91 841.89 3.35 841.89 C4.22 841.89 4.56 840.53 4.56 840.45 C4.56 840.36 4.48 840.36
								 4.45 840.36 C4.36 840.36 4.36 840.39 4.31 840.53 C4.18 841.03 3.87 841.68 3.36 841.68 C3.2 841.68
								 3.14 841.58 3.14 841.37 C3.14 841.15 3.23 840.92 3.31 840.72 C3.46 840.32 3.87 839.22 3.87 838.67
								 C3.87 838.07 3.51 837.67 2.81 837.67 C2.22 837.67 1.78 837.97 1.44 838.39 L2.15 835.44 Z"
							class="st6"/>
				</g>
			</g>
		</g>
		<g id="group625-67" transform="translate(121.819,-763.217)" v:mID="625" v:groupContext="group">
			<title>Tabelle.625</title>
			<g id="group292-68" v:mID="292" v:groupContext="group">
				<title>Tabelle.292</title>
				<g id="shape293-69" v:mID="293" v:groupContext="shape">
					<title>path229734</title>
					<path d="M0.55 841.24 C0.52 841.37 0.47 841.58 0.47 841.64 C0.47 841.8 0.6 841.89 0.73 841.89 C0.85 841.89 1.01
								 841.81 1.08 841.62 C1.09 841.61 1.2 841.17 1.25 840.93 L1.46 840.11 C1.52 839.9 1.57 839.7 1.62
								 839.48 C1.65 839.32 1.73 839.06 1.74 839.02 C1.87 838.72 2.37 837.89 3.26 837.89 C3.67 837.89 3.75
								 838.23 3.75 838.54 C3.75 839.11 3.3 840.29 3.15 840.69 C3.07 840.91 3.06 841.03 3.06 841.12 C3.06
								 841.56 3.38 841.89 3.82 841.89 C4.69 841.89 5.04 840.53 5.04 840.45 C5.04 840.36 4.95 840.36 4.92
								 840.36 C4.83 840.36 4.83 840.39 4.79 840.53 C4.6 841.16 4.3 841.68 3.84 841.68 C3.68 841.68 3.62
								 841.58 3.62 841.37 C3.62 841.15 3.7 840.92 3.78 840.72 C3.96 840.23 4.35 839.2 4.35 838.67 C4.35
								 838.05 3.95 837.67 3.28 837.67 C2.45 837.67 1.99 838.27 1.84 838.49 C1.78 837.97 1.41 837.67 0.98
								 837.67 C0.55 837.67 0.37 838.05 0.28 838.21 C0.13 838.53 0 839.07 0 839.11 C0 839.2 0.09 839.2 0.12
								 839.2 C0.21 839.2 0.21 839.19 0.27 838.99 C0.43 838.33 0.61 837.89 0.94 837.89 C1.13 837.89 1.24
								 838.01 1.24 838.31 C1.24 838.51 1.21 838.61 1.09 839.1 L0.55 841.24 Z" class="st6"/>
				</g>
			</g>
			<g id="group294-71" transform="translate(8.16747,-1.94143)" v:mID="294" v:groupContext="group">
				<title>Tabelle.294</title>
				<g id="shape295-72" v:mID="295" v:groupContext="shape">
					<title>path229710</title>
					<path d="M0.98 841.41 C0.98 841.13 0.76 840.92 0.49 840.92 C0.23 840.92 0 841.13 0 841.41 C0 841.68 0.23 841.89
								 0.49 841.89 C0.76 841.89 0.98 841.68 0.98 841.41 Z" class="st6"/>
				</g>
			</g>
			<g id="group296-74" transform="translate(12.5173,0)" v:mID="296" v:groupContext="group">
				<title>Tabelle.296</title>
				<g id="shape297-75" v:mID="297" v:groupContext="shape">
					<title>path229728</title>
					<path d="M2.15 835.44 C2.15 835.44 2.15 835.35 2.03 835.35 C1.82 835.35 1.14 835.41 0.9 835.44 C0.84 835.44 0.73
								 835.45 0.73 835.63 C0.73 835.73 0.81 835.73 0.96 835.73 C1.4 835.73 1.41 835.8 1.41 835.89 L1.38
								 836.08 L0.04 841.42 C0 841.56 0 841.57 0 841.62 C0 841.84 0.19 841.89 0.28 841.89 C0.43 841.89 0.57
								 841.77 0.61 841.65 L0.8 840.93 L1 840.11 C1.05 839.9 1.1 839.7 1.16 839.48 C1.17 839.43 1.25 839.12
								 1.26 839.06 C1.29 838.98 1.57 838.46 1.89 838.21 C2.09 838.06 2.38 837.89 2.78 837.89 C3.18 837.89
								 3.28 838.21 3.28 838.54 C3.28 839.03 2.93 840.04 2.71 840.61 C2.63 840.83 2.58 840.93 2.58 841.12
								 C2.58 841.56 2.91 841.89 3.35 841.89 C4.22 841.89 4.56 840.53 4.56 840.45 C4.56 840.36 4.48 840.36
								 4.45 840.36 C4.36 840.36 4.36 840.39 4.31 840.53 C4.18 841.03 3.87 841.68 3.36 841.68 C3.2 841.68
								 3.14 841.58 3.14 841.37 C3.14 841.15 3.23 840.92 3.31 840.72 C3.46 840.32 3.87 839.22 3.87 838.67
								 C3.87 838.07 3.51 837.67 2.81 837.67 C2.22 837.67 1.78 837.97 1.44 838.39 L2.15 835.44 Z"
							class="st6"/>
				</g>
			</g>
		</g>
	</g>
</svg>
