<?xml version="1.0" encoding="UTF-8" standalone="no"?>
<!DOCTYPE svg PUBLIC "-//W3C//DTD SVG 1.1//EN" "http://www.w3.org/Graphics/SVG/1.1/DTD/svg11.dtd">
<!-- Generiert durch Microsoft Visio, SVG Export hw8.svg Zeichenblatt-1 -->
<svg xmlns="http://www.w3.org/2000/svg" xmlns:xlink="http://www.w3.org/1999/xlink" xmlns:ev="http://www.w3.org/2001/xml-events"
		xmlns:v="http://schemas.microsoft.com/visio/2003/SVGExtensions/" width="2.17577in" height="1.4619in"
		viewBox="0 0 156.656 105.257" xml:space="preserve" color-interpolation-filters="sRGB" class="st15">
	<v:documentProperties v:langID="1033" v:metric="true" v:viewMarkup="false"/>

	<style type="text/css">
	<![CDATA[
		.st1 {stroke:#c00000;stroke-linecap:round;stroke-linejoin:round;stroke-width:0.75}
		.st2 {marker-end:url(#mrkr5-9);stroke:#000000;stroke-linecap:round;stroke-linejoin:round;stroke-width:0.5}
		.st3 {fill:#000000;fill-opacity:1;stroke:#000000;stroke-opacity:1;stroke-width:0.25773195876289}
		.st4 {fill:none;stroke:#0070c0;stroke-linecap:round;stroke-linejoin:round;stroke-width:0.25}
		.st5 {stroke:#0070c0;stroke-linecap:round;stroke-linejoin:round;stroke-width:0.25}
		.st6 {fill:none;stroke:none;stroke-linecap:round;stroke-linejoin:round;stroke-width:0.75}
		.st7 {fill:#000000;font-family:CMU Serif;font-size:0.833336em;font-style:italic}
		.st8 {marker-start:url(#mrkr5-46);stroke:#000000;stroke-linecap:round;stroke-linejoin:round;stroke-width:0.5}
		.st9 {fill:#ffffff;stroke:none;stroke-linecap:round;stroke-linejoin:round;stroke-width:0.75}
		.st10 {fill:#000000;stroke:none;stroke-linecap:butt;stroke-width:1}
		.st11 {fill:#000000;font-family:CMU Serif;font-size:0.833336em}
		.st12 {fill:none;stroke:#c00000;stroke-linecap:round;stroke-linejoin:round;stroke-width:1}
		.st13 {fill:#000000;stroke:none;stroke-linecap:round;stroke-linejoin:round;stroke-width:0.75}
		.st14 {stroke:#000000;stroke-linecap:round;stroke-linejoin:round;stroke-width:0.299997}
		.st15 {fill:none;fill-rule:evenodd;font-size:12px;overflow:visible;stroke-linecap:square;stroke-miterlimit:3}
	]]>
	</style>

	<defs id="Markers">
		<g id="lend5">
			<path d="M 2 1 L 0 0 L 1.98117 -0.993387 C 1.67173 -0.364515 1.67301 0.372641 1.98465 1.00043 " style="stroke:none"/>
		</g>
		<marker id="mrkr5-9" class="st3" v:arrowType="5" v:arrowSize="0" v:setback="6.79" refX="-6.79" orient="auto"
				markerUnits="strokeWidth" overflow="visible">
			<use xlink:href="#lend5" transform="scale(-3.88,-3.88) "/>
		</marker>
		<marker id="mrkr5-46" class="st3" v:arrowType="5" v:arrowSize="0" v:setback="6.07" refX="6.07" orient="auto"
				markerUnits="strokeWidth" overflow="visible">
			<use xlink:href="#lend5" transform="scale(3.88) "/>
		</marker>
	</defs>
	<g v:mID="0" v:index="1" v:groupContext="foregroundPage">
		<title>Zeichenblatt-1</title>
		<v:pageProperties v:drawingScale="0.0393701" v:pageScale="0.0393701" v:drawingUnits="24" v:shadowOffsetX="8.50394"
				v:shadowOffsetY="-8.50394"/>
		<g id="shape80-1" v:mID="80" v:groupContext="shape" transform="translate(4.57525,112.602) rotate(11.3099) scale(1,-1)">
			<title>Tabelle.80</title>
			<path d="M0 94.21 C4.31 88.28 12.27 79.04 23.39 77.53 C26.16 77.16 29.14 77.26 31.74 77.78 C41.99 79.83 46.6 88.32 52.93
						 95.95 C56.26 99.97 60.08 103.75 64.77 104.89 C75.73 107.55 91.46 95.77 101.18 94.21" class="st1"/>
		</g>
		<g id="shape1-4" v:mID="1" v:groupContext="shape" transform="translate(14.5482,-65.1969)">
			<title>Tabelle.1</title>
			<path d="M0 105.26 L123.79 105.26" class="st2"/>
		</g>
		<g id="shape2-10" v:mID="2" v:groupContext="shape" transform="translate(61.3199,-43.937)">
			<title>Tabelle.2</title>
			<ellipse cx="1.41732" cy="103.84" rx="1.41732" ry="1.41732" class="st4"/>
		</g>
		<g id="shape3-12" v:mID="3" v:groupContext="shape" transform="translate(81.1624,-43.937)">
			<title>Tabelle.3</title>
			<ellipse cx="1.41732" cy="103.84" rx="1.41732" ry="1.41732" class="st4"/>
		</g>
		<g id="shape4-14" v:mID="4" v:groupContext="shape" transform="translate(41.4774,-43.937)">
			<title>Tabelle.4</title>
			<ellipse cx="1.41732" cy="103.84" rx="1.41732" ry="1.41732" class="st4"/>
		</g>
		<g id="shape5-16" v:mID="5" v:groupContext="shape" transform="translate(-62.3622,65.5718) rotate(-90)">
			<title>Tabelle.5</title>
			<path d="M0 105.26 L51.02 105.26" class="st5"/>
		</g>
		<g id="shape6-19" v:mID="6" v:groupContext="shape" transform="translate(-42.5197,65.5718) rotate(-90)">
			<title>Tabelle.6</title>
			<path d="M0 105.26 L51.02 105.26" class="st5"/>
		</g>
		<g id="shape7-22" v:mID="7" v:groupContext="shape" transform="translate(-22.6772,65.5718) rotate(-90)">
			<title>Tabelle.7</title>
			<path d="M0 105.26 L51.02 105.26" class="st5"/>
		</g>
		<g id="shape8-25" v:mID="8" v:groupContext="shape" transform="translate(-2.83464,65.5718) rotate(-90)">
			<title>Tabelle.8</title>
			<path d="M0 105.26 L51.02 105.26" class="st5"/>
		</g>
		<g id="shape9-28" v:mID="9" v:groupContext="shape" transform="translate(14.5482,-45.3543)">
			<title>Tabelle.9</title>
			<path d="M0 105.26 L110.93 105.26" class="st5"/>
		</g>
		<g id="shape10-31" v:mID="10" v:groupContext="shape" transform="translate(14.5482,-85.0394)">
			<title>Tabelle.10</title>
			<path d="M0 105.26 L110.36 105.26" class="st5"/>
		</g>
		<g id="shape11-34" v:mID="11" v:groupContext="shape" transform="translate(101.005,-63.7796)">
			<title>Tabelle.11</title>
			<ellipse cx="1.41732" cy="103.84" rx="1.41732" ry="1.41732" class="st4"/>
		</g>
		<g id="shape12-36" v:mID="12" v:groupContext="shape" transform="translate(21.6348,-63.7795)">
			<title>Tabelle.12</title>
			<ellipse cx="1.41732" cy="103.84" rx="1.41732" ry="1.41732" class="st4"/>
		</g>
		<g id="shape13-38" v:mID="13" v:groupContext="shape" transform="translate(139.273,-59.5276)">
			<title>Tabelle.13</title>
			<desc>x</desc>
			<v:textBlock v:margins="rect(0,0,0,0)" v:tabSpace="42.5197"/>
			<v:textRect cx="8.50394" cy="99.5876" width="17.01" height="11.3386"/>
			<rect x="0" y="93.9183" width="17.0079" height="11.3386" class="st6"/>
			<text x="6.18" y="102.59" class="st7" v:langID="1033"><v:paragraph v:horizAlign="1"/><v:tabList/>x</text>		</g>
		<g id="shape14-41" v:mID="14" v:groupContext="shape" transform="translate(128.309,11.7136) rotate(90)">
			<title>Tabelle.14</title>
			<path d="M3.04 105.26 L3.4 105.26 L53.86 105.26" class="st8"/>
		</g>
		<g id="shape15-47" v:mID="15" v:groupContext="shape" transform="translate(14.5482,-93.5433)">
			<title>Tabelle.15</title>
			<desc>u</desc>
			<v:textBlock v:margins="rect(0,0,0,0)" v:tabSpace="42.5197"/>
			<v:textRect cx="8.50394" cy="99.5876" width="17.01" height="11.3386"/>
			<rect x="0" y="93.9183" width="17.0079" height="11.3386" class="st6"/>
			<text x="5.82" y="102.59" class="st7" v:langID="2055"><v:paragraph v:horizAlign="1"/><v:tabList/>u</text>		</g>
		<g id="group16-50" transform="translate(14.5482,-17.0079)" v:mID="16" v:groupContext="group">
			<title>Tabelle.16</title>
			<g id="shape17-51" v:mID="17" v:groupContext="shape">
				<title>Tabelle.17</title>
				<rect x="0" y="88.249" width="17.0079" height="17.0079" class="st9"/>
			</g>
			<g id="group18-53" transform="translate(6.20706,-5.41639)" v:mID="18" v:groupContext="group">
				<title>Tabelle.18</title>
				<g id="shape19-54" v:mID="19" v:groupContext="shape">
					<title>path1061</title>
					<path d="M4.59 101.54 C4.59 100.66 4.55 99.79 4.16 98.98 C3.66 97.93 2.77 97.76 2.3 97.76 C1.66 97.76 0.86 98.04
								 0.41 99.05 C0.06 99.8 0 100.66 0 101.54 C0 102.35 0.05 103.34 0.5 104.16 C0.97 105.04 1.77 105.26
								 2.3 105.26 C2.88 105.26 3.72 105.04 4.19 103.99 C4.55 103.24 4.59 102.4 4.59 101.54 ZM2.3 105.02
								 C1.88 105.02 1.22 104.76 1.03 103.71 C0.91 103.05 0.91 102.04 0.91 101.4 C0.91 100.71 0.91 99.99
								 1 99.4 C1.2 98.1 2.02 97.99 2.3 97.99 C2.66 97.99 3.38 98.19 3.58 99.27 C3.69 99.88 3.69 100.71
								 3.69 101.4 C3.69 102.23 3.69 102.96 3.56 103.66 C3.41 104.69 2.78 105.02 2.3 105.02 Z"
							class="st10"/>
				</g>
			</g>
		</g>
		<g id="group44-56" transform="translate(113.761,-17.0079)" v:mID="44" v:groupContext="group">
			<title>Tabelle.44</title>
			<g id="shape45-57" v:mID="45" v:groupContext="shape">
				<title>Tabelle.45</title>
				<rect x="0" y="88.249" width="17.0079" height="17.0079" class="st9"/>
			</g>
			<g id="group46-59" transform="translate(6.84981,-5.65076)" v:mID="46" v:groupContext="group">
				<title>Tabelle.46</title>
				<g id="shape47-60" v:mID="47" v:groupContext="shape">
					<title>path1064</title>
					<path d="M2.23 98.27 C2.23 98.02 2.23 97.99 1.98 97.99 C1.31 98.69 0.34 98.69 0 98.69 L0 99.02 C0.22 99.02 0.86
								 99.02 1.44 98.74 L1.44 104.4 C1.44 104.79 1.39 104.91 0.42 104.91 L0.06 104.91 L0.06 105.26 C0.45
								 105.23 1.39 105.23 1.83 105.23 C2.27 105.23 3.22 105.23 3.59 105.26 L3.59 104.91 L3.25 104.91 C2.27
								 104.91 2.23 104.8 2.23 104.4 L2.23 98.27 Z" class="st10"/>
				</g>
			</g>
		</g>
		<g id="shape48-62" v:mID="48" v:groupContext="shape" transform="translate(0.375,-59.5276)">
			<title>Tabelle.48</title>
			<desc>0</desc>
			<v:textBlock v:margins="rect(0,0,0,0)" v:tabSpace="42.5197"/>
			<v:textRect cx="8.50394" cy="99.5876" width="17.01" height="11.3386"/>
			<rect x="0" y="93.9183" width="17.0079" height="11.3386" class="st6"/>
			<text x="6" y="102.59" class="st11" v:langID="1033"><v:paragraph v:horizAlign="1"/><v:tabList/>0</text>		</g>
		<g id="shape49-65" v:mID="49" v:groupContext="shape" transform="translate(20.2175,-81.9213)">
			<title>Tabelle.49</title>
			<ellipse cx="2.83465" cy="102.422" rx="2.83465" ry="2.83465" class="st12"/>
		</g>
		<g id="shape52-67" v:mID="52" v:groupContext="shape" transform="translate(14.5482,4.26326E-14)">
			<title>Tabelle.52</title>
			<path d="M0 88.25 L0 105.26 L17.01 105.26 L17.01 88.25 L0 88.25 Z" class="st9"/>
		</g>
		<g id="shape53-69" v:mID="53" v:groupContext="shape" transform="translate(18.1613,-6.87389)">
			<title>Tabelle.53</title>
			<path d="M3.35 101.82 C3.35 101.56 3.61 100.59 4.41 100.59 C4.41 100.59 4.67 100.59 4.93 100.67 C4.67 100.76 4.41 101.03
						 4.41 101.29 C4.41 101.47 4.49 101.64 4.85 101.64 C5.11 101.64 5.46 101.47 5.46 101.03 C5.46 100.5 4.76 100.32
						 4.41 100.32 C3.79 100.32 3.35 100.94 3.26 101.11 C3 100.41 2.38 100.32 2.11 100.32 C0.97 100.32 0.35 101.73
						 0.35 102 C0.35 102.08 0.44 102.08 0.44 102.08 C0.53 102.08 0.62 102.08 0.62 102 C0.97 100.85 1.67 100.59
						 2.03 100.59 C2.29 100.59 2.64 100.67 2.64 101.29 C2.64 101.64 2.47 102.35 2.03 103.93 C1.85 104.55 1.5 104.99
						 1.06 104.99 C0.97 104.99 0.7 104.99 0.53 104.9 C0.7 104.82 0.97 104.55 0.97 104.29 C0.97 104.02 0.7 103.93
						 0.62 103.93 C0.26 103.93 0 104.2 0 104.55 C-0 105.08 0.53 105.26 1.06 105.26 C1.76 105.26 2.11 104.46 2.11
						 104.46 C2.29 104.82 2.64 105.26 3.35 105.26 C4.41 105.26 5.11 103.85 5.11 103.58 C5.11 103.49 5.02 103.49
						 4.93 103.49 C4.85 103.49 4.85 103.49 4.85 103.58 C4.41 104.73 3.7 104.99 3.35 104.99 C2.91 104.99 2.73 104.64
						 2.73 104.29 C2.73 104.02 2.82 103.85 2.91 103.32 L3.35 101.82 Z" class="st13"/>
		</g>
		<g id="shape54-71" v:mID="54" v:groupContext="shape" transform="translate(24.4181,-5.19948)">
			<title>Tabelle.54</title>
			<path d="M3.52 102.52 C3.52 101.73 3.44 101.2 3.17 100.67 C2.82 99.97 2.2 99.79 1.76 99.79 C0.79 99.79 0.35 100.59 0.26
						 100.76 C-0 101.38 0 102.17 0 102.52 C0 103.05 -0 103.85 0.35 104.55 C0.7 105.08 1.32 105.26 1.76 105.26
						 C2.11 105.26 2.82 105.17 3.26 104.38 C3.52 103.76 3.52 103.05 3.52 102.52 ZM1.76 104.99 C1.5 104.99 0.97
						 104.9 0.79 104.11 C0.7 103.58 0.7 102.88 0.7 102.44 C0.7 101.91 0.7 101.38 0.79 100.94 C0.97 100.15 1.59
						 100.06 1.76 100.06 C2.03 100.06 2.56 100.15 2.73 100.85 C2.82 101.29 2.82 101.91 2.82 102.44 C2.82 102.88
						 2.82 103.67 2.73 104.11 C2.56 104.9 2.03 104.99 1.76 104.99 Z" class="st13"/>
		</g>
		<g id="shape56-73" v:mID="56" v:groupContext="shape" transform="translate(34.3907,-7.10543E-14)">
			<title>Tabelle.56</title>
			<path d="M0 88.25 L0 105.26 L17.01 105.26 L17.01 88.25 L0 88.25 Z" class="st9"/>
		</g>
		<g id="shape57-75" v:mID="57" v:groupContext="shape" transform="translate(38.1801,-6.78576)">
			<title>Tabelle.57</title>
			<path d="M3.26 101.82 C3.35 101.56 3.61 100.59 4.41 100.59 C4.41 100.59 4.67 100.59 4.93 100.67 C4.67 100.76 4.41 101.03
						 4.41 101.29 C4.41 101.47 4.49 101.64 4.85 101.64 C5.11 101.64 5.38 101.47 5.38 101.03 C5.38 100.5 4.76 100.32
						 4.41 100.32 C3.79 100.32 3.35 100.85 3.26 101.11 C3 100.41 2.38 100.32 2.11 100.32 C0.97 100.32 0.35 101.73
						 0.35 102 C0.35 102.08 0.44 102.08 0.44 102.08 C0.53 102.08 0.62 102.08 0.62 102 C0.97 100.85 1.67 100.59
						 2.03 100.59 C2.29 100.59 2.64 100.67 2.64 101.29 C2.64 101.64 2.47 102.35 2.03 103.85 C1.85 104.55 1.5 104.99
						 1.06 104.99 C0.97 104.99 0.7 104.99 0.44 104.9 C0.7 104.82 0.97 104.55 0.97 104.29 C0.97 104.02 0.7 103.93
						 0.62 103.93 C0.26 103.93 0 104.2 0 104.55 C0 104.99 0.53 105.26 0.97 105.26 C1.76 105.26 2.11 104.46 2.11
						 104.46 C2.29 104.82 2.64 105.26 3.35 105.26 C4.41 105.26 5.11 103.85 5.11 103.58 C5.11 103.49 5.02 103.49
						 4.93 103.49 C4.85 103.49 4.85 103.49 4.76 103.58 C4.41 104.73 3.7 104.99 3.35 104.99 C2.91 104.99 2.73 104.64
						 2.73 104.29 C2.73 104.02 2.82 103.85 2.91 103.32 L3.26 101.82 Z" class="st13"/>
		</g>
		<g id="shape58-77" v:mID="58" v:groupContext="shape" transform="translate(44.8775,-5.28761)">
			<title>Tabelle.58</title>
			<path d="M1.67 100.15 C1.67 99.97 1.67 99.97 1.5 99.97 C1.15 100.32 0.7 100.5 0 100.5 L0 100.76 C0.18 100.76 0.62 100.76
						 1.06 100.5 L1.06 104.64 C1.06 104.9 1.06 104.99 0.26 104.99 L0 104.99 L0 105.26 L0 105.26 C0.35 105.26 1.06
						 105.26 1.41 105.26 C1.76 105.26 2.47 105.26 2.73 105.26 L2.73 104.99 L2.47 104.99 L2.47 104.99 C1.76 104.99
						 1.67 104.9 1.67 104.64 L1.67 100.15 Z" class="st13"/>
		</g>
		<g id="shape60-79" v:mID="60" v:groupContext="shape" transform="translate(54.2333,1.56319E-13)">
			<title>Tabelle.60</title>
			<path d="M0 88.25 L0 105.26 L17.01 105.26 L17.01 88.25 L0 88.25 Z" class="st9"/>
		</g>
		<g id="shape61-81" v:mID="61" v:groupContext="shape" transform="translate(57.9345,-6.78576)">
			<title>Tabelle.61</title>
			<path d="M3.26 101.82 C3.35 101.56 3.61 100.59 4.41 100.59 C4.41 100.59 4.67 100.59 4.93 100.67 C4.58 100.76 4.41 101.03
						 4.41 101.29 C4.41 101.47 4.49 101.64 4.76 101.64 C5.02 101.64 5.38 101.47 5.38 101.03 C5.38 100.5 4.76 100.32
						 4.41 100.32 C3.7 100.32 3.35 100.85 3.26 101.11 C3 100.41 2.38 100.32 2.03 100.32 C0.88 100.32 0.26 101.73
						 0.26 102 C0.26 102.08 0.44 102.08 0.44 102.08 C0.53 102.08 0.53 102.08 0.53 102 C0.97 100.85 1.67 100.59
						 2.03 100.59 C2.2 100.59 2.64 100.67 2.64 101.29 C2.64 101.64 2.47 102.35 2.03 103.85 C1.85 104.55 1.5 104.99
						 0.97 104.99 C0.88 104.99 0.7 104.99 0.44 104.9 C0.7 104.82 0.97 104.55 0.97 104.29 C0.97 104.02 0.7 103.93
						 0.53 103.93 C0.26 103.93 0 104.2 0 104.55 C0 104.99 0.53 105.26 0.97 105.26 C1.67 105.26 2.11 104.46 2.11
						 104.46 C2.29 104.82 2.64 105.26 3.35 105.26 C4.41 105.26 5.02 103.85 5.02 103.58 C5.02 103.49 4.93 103.49
						 4.93 103.49 C4.85 103.49 4.76 103.49 4.76 103.58 C4.41 104.73 3.7 104.99 3.35 104.99 C2.91 104.99 2.73 104.64
						 2.73 104.29 C2.73 104.02 2.82 103.85 2.91 103.32 L3.26 101.82 Z" class="st13"/>
		</g>
		<g id="shape62-83" v:mID="62" v:groupContext="shape" transform="translate(64.1912,-5.28761)">
			<title>Tabelle.62</title>
			<path d="M1.85 103.67 C2.03 103.49 2.29 103.23 2.47 103.14 C2.91 102.7 3.44 102.26 3.44 101.56 C3.44 100.59 2.64 99.97
						 1.59 99.97 C0.62 99.97 -0 100.67 0 101.38 C0 101.82 0.35 101.82 0.44 101.82 C0.62 101.82 0.88 101.73 0.88
						 101.47 C0.88 101.03 0.44 101.03 0.35 101.03 C0.62 100.41 1.15 100.23 1.5 100.23 C2.29 100.23 2.64 100.85
						 2.64 101.56 C2.64 102.35 2.11 102.97 1.15 103.93 L0.09 104.99 C-0 105.08 0 105.08 0 105.26 L3.17 105.26
						 L3.44 103.85 L3.17 103.85 L3.17 103.85 C3.17 104.02 3.08 104.38 3 104.55 C2.91 104.64 2.29 104.64 2.2 104.64
						 L0.79 104.64 L1.85 103.67 Z" class="st13"/>
		</g>
		<g id="shape64-85" v:mID="64" v:groupContext="shape" transform="translate(74.0758,-0.0857694)">
			<title>Tabelle.64</title>
			<path d="M0 88.33 L0 105.26 L16.92 105.26 L16.92 88.33 L0 88.33 Z" class="st9"/>
		</g>
		<g id="shape65-87" v:mID="65" v:groupContext="shape" transform="translate(77.6705,-6.92475)">
			<title>Tabelle.65</title>
			<path d="M3.33 101.84 C3.33 101.57 3.59 100.61 4.38 100.61 C4.47 100.61 4.65 100.61 4.91 100.7 C4.65 100.79 4.38 101.05
						 4.38 101.31 C4.38 101.49 4.47 101.66 4.82 101.66 C5 101.66 5.35 101.49 5.35 101.05 C5.35 100.52 4.73 100.35
						 4.38 100.35 C3.77 100.35 3.33 100.96 3.24 101.14 C2.98 100.43 2.37 100.35 2.02 100.35 C0.96 100.35 0.35
						 101.75 0.35 102.01 C0.35 102.1 0.44 102.1 0.44 102.1 C0.53 102.1 0.53 102.1 0.61 102.01 C0.96 100.87 1.67
						 100.61 2.02 100.61 C2.28 100.61 2.63 100.7 2.63 101.31 C2.63 101.66 2.45 102.36 2.02 103.94 C1.84 104.56
						 1.49 104.99 1.05 104.99 C0.96 104.99 0.7 104.99 0.44 104.91 C0.79 104.82 0.96 104.56 0.96 104.29 C0.96 104.03
						 0.79 103.94 0.61 103.94 C0.26 103.94 0 104.2 0 104.56 C-0 105.08 0.53 105.26 0.96 105.26 C1.75 105.26 2.1
						 104.47 2.19 104.47 C2.28 104.82 2.63 105.26 3.33 105.26 C4.47 105.26 5 103.85 5 103.59 C5 103.5 4.91 103.5
						 4.91 103.5 C4.82 103.5 4.82 103.5 4.82 103.59 C4.47 104.73 3.68 104.99 3.33 104.99 C2.89 104.99 2.72 104.64
						 2.72 104.29 C2.72 104.03 2.81 103.85 2.89 103.33 L3.33 101.84 Z" class="st13"/>
		</g>
		<g id="shape66-89" v:mID="66" v:groupContext="shape" transform="translate(83.8955,-5.25885)">
			<title>Tabelle.66</title>
			<path d="M1.67 102.45 C2.28 102.45 2.72 102.89 2.72 103.77 C2.72 104.73 2.1 104.99 1.67 104.99 C1.23 104.99 0.61 104.91
						 0.35 104.47 C0.7 104.47 0.88 104.29 0.88 104.03 C0.88 103.77 0.7 103.59 0.44 103.59 C0.18 103.59 0 103.68
						 0 104.03 C-0 104.73 0.79 105.26 1.67 105.26 C2.72 105.26 3.51 104.56 3.51 103.77 C3.51 103.06 2.98 102.45
						 2.19 102.28 C2.81 102.1 3.24 101.57 3.24 100.96 C3.24 100.26 2.54 99.82 1.75 99.82 C0.88 99.82 0.26 100.26
						 0.26 100.87 C0.26 101.22 0.44 101.31 0.61 101.31 C0.88 101.31 1.05 101.14 1.05 100.87 C1.05 100.61 0.79
						 100.52 0.61 100.52 C0.96 100.08 1.58 100.08 1.67 100.08 C1.93 100.08 2.45 100.08 2.45 100.96 C2.45 101.49
						 2.28 101.84 2.19 101.93 C1.93 102.19 1.75 102.19 1.23 102.28 C1.14 102.28 1.05 102.28 1.05 102.36 C1.05
						 102.45 1.14 102.45 1.23 102.45 L1.67 102.45 Z" class="st13"/>
		</g>
		<g id="shape68-91" v:mID="68" v:groupContext="shape" transform="translate(93.9183,-0.0857694)">
			<title>Tabelle.68</title>
			<path d="M0 88.33 L0 105.26 L16.92 105.26 L16.92 88.33 L0 88.33 Z" class="st9"/>
		</g>
		<g id="shape69-93" v:mID="69" v:groupContext="shape" transform="translate(97.4254,-6.83708)">
			<title>Tabelle.69</title>
			<path d="M3.33 101.84 C3.42 101.57 3.68 100.61 4.38 100.61 C4.47 100.61 4.73 100.61 5 100.7 C4.65 100.79 4.47 101.05
						 4.47 101.31 C4.47 101.49 4.56 101.66 4.82 101.66 C5.09 101.66 5.44 101.49 5.44 101.05 C5.44 100.52 4.82
						 100.35 4.38 100.35 C3.77 100.35 3.42 100.87 3.24 101.14 C2.98 100.43 2.45 100.35 2.1 100.35 C0.96 100.35
						 0.35 101.75 0.35 102.01 C0.35 102.1 0.44 102.1 0.44 102.1 C0.61 102.1 0.61 102.1 0.61 102.01 C0.96 100.87
						 1.75 100.61 2.1 100.61 C2.28 100.61 2.63 100.7 2.63 101.31 C2.63 101.66 2.45 102.36 2.1 103.85 C1.93 104.56
						 1.49 104.99 1.05 104.99 C0.96 104.99 0.7 104.99 0.53 104.91 C0.79 104.82 1.05 104.56 1.05 104.29 C1.05 104.03
						 0.79 103.94 0.61 103.94 C0.26 103.94 0 104.2 0 104.56 C0 104.99 0.61 105.26 1.05 105.26 C1.75 105.26 2.19
						 104.47 2.19 104.47 C2.28 104.82 2.72 105.26 3.33 105.26 C4.47 105.26 5.09 103.85 5.09 103.59 C5.09 103.5
						 5 103.5 5 103.5 C4.82 103.5 4.82 103.5 4.82 103.59 C4.47 104.73 3.68 104.99 3.33 104.99 C2.98 104.99 2.81
						 104.64 2.81 104.29 C2.81 104.03 2.89 103.85 2.98 103.33 L3.33 101.84 Z" class="st13"/>
		</g>
		<g id="shape70-95" v:mID="70" v:groupContext="shape" transform="translate(103.563,-5.34653)">
			<title>Tabelle.70</title>
			<path d="M2.89 100.17 C2.89 100 2.89 99.91 2.72 99.91 C2.63 99.91 2.63 99.91 2.54 100 L0 103.68 L0 103.94 L2.28 103.94
						 L2.28 104.64 L2.28 104.64 C2.28 104.91 2.19 104.99 1.58 104.99 L1.4 104.99 L1.4 105.26 L1.4 105.26 C2.1
						 105.26 2.1 105.26 2.54 105.26 C2.98 105.26 3.07 105.26 3.68 105.26 L3.68 104.99 L3.51 104.99 L3.51 104.99
						 C2.89 104.99 2.89 104.91 2.89 104.64 L2.89 103.94 L3.77 103.94 L3.77 103.68 L2.89 103.68 L2.89 100.17 ZM2.28
						 100.79 L2.28 103.68 L0.26 103.68 L2.28 100.79 Z" class="st13"/>
		</g>
		<g id="shape71-97" v:mID="71" v:groupContext="shape" transform="translate(81.1624,-83.622)">
			<title>Tabelle.71</title>
			<ellipse cx="1.41732" cy="103.84" rx="1.41732" ry="1.41732" class="st4"/>
		</g>
		<g id="shape72-99" v:mID="72" v:groupContext="shape" transform="translate(61.3199,-83.622)">
			<title>Tabelle.72</title>
			<ellipse cx="1.41732" cy="103.84" rx="1.41732" ry="1.41732" class="st4"/>
		</g>
		<g id="shape73-101" v:mID="73" v:groupContext="shape" transform="translate(41.4774,-83.622)">
			<title>Tabelle.73</title>
			<ellipse cx="1.41732" cy="103.84" rx="1.41732" ry="1.41732" class="st4"/>
		</g>
		<g id="shape74-103" v:mID="74" v:groupContext="shape" transform="translate(81.1624,-63.7795)">
			<title>Tabelle.74</title>
			<ellipse cx="1.41732" cy="103.84" rx="1.41732" ry="1.41732" class="st4"/>
		</g>
		<g id="shape75-105" v:mID="75" v:groupContext="shape" transform="translate(61.3199,-63.7795)">
			<title>Tabelle.75</title>
			<ellipse cx="1.41732" cy="103.84" rx="1.41732" ry="1.41732" class="st4"/>
		</g>
		<g id="shape76-107" v:mID="76" v:groupContext="shape" transform="translate(41.4774,-63.7795)">
			<title>Tabelle.76</title>
			<ellipse cx="1.41732" cy="103.84" rx="1.41732" ry="1.41732" class="st4"/>
		</g>
		<g id="shape77-109" v:mID="77" v:groupContext="shape" transform="translate(101.005,-83.622)">
			<title>Tabelle.77</title>
			<ellipse cx="1.41732" cy="103.84" rx="1.41732" ry="1.41732" class="st4"/>
		</g>
		<g id="shape78-111" v:mID="78" v:groupContext="shape" transform="translate(101.005,-43.937)">
			<title>Tabelle.78</title>
			<ellipse cx="1.41732" cy="103.84" rx="1.41732" ry="1.41732" class="st4"/>
		</g>
		<g id="shape79-113" v:mID="79" v:groupContext="shape" transform="translate(21.6348,-43.937)">
			<title>Tabelle.79</title>
			<ellipse cx="1.41732" cy="103.84" rx="1.41732" ry="1.41732" class="st4"/>
		</g>
		<g id="shape81-115" v:mID="81" v:groupContext="shape" transform="translate(0.375,-79.3701)">
			<title>Tabelle.81</title>
			<desc>1</desc>
			<v:textBlock v:margins="rect(0,0,0,0)" v:tabSpace="42.5197"/>
			<v:textRect cx="8.50394" cy="99.5876" width="17.01" height="11.3386"/>
			<rect x="0" y="93.9183" width="17.0079" height="11.3386" class="st6"/>
			<text x="6" y="102.59" class="st11" v:langID="2055"><v:paragraph v:horizAlign="1"/><v:tabList/>1</text>		</g>
		<g id="shape101-118" v:mID="101" v:groupContext="shape" transform="translate(17.0079,65.5718) rotate(-90)">
			<title>Tabelle.101</title>
			<path d="M0 105.26 L51.02 105.26" class="st5"/>
		</g>
		<g id="shape102-121" v:mID="102" v:groupContext="shape" transform="translate(120.847,-63.7796)">
			<title>Tabelle.102</title>
			<ellipse cx="1.41732" cy="103.84" rx="1.41732" ry="1.41732" class="st4"/>
		</g>
		<g id="shape103-123" v:mID="103" v:groupContext="shape" transform="translate(119.43,-62.3622)">
			<title>Tabelle.103</title>
			<ellipse cx="2.83465" cy="102.422" rx="2.83465" ry="2.83465" class="st12"/>
		</g>
		<g id="shape104-125" v:mID="104" v:groupContext="shape" transform="translate(120.847,-83.622)">
			<title>Tabelle.104</title>
			<ellipse cx="1.41732" cy="103.84" rx="1.41732" ry="1.41732" class="st4"/>
		</g>
		<g id="shape105-127" v:mID="105" v:groupContext="shape" transform="translate(120.847,-43.937)">
			<title>Tabelle.105</title>
			<ellipse cx="1.41732" cy="103.84" rx="1.41732" ry="1.41732" class="st4"/>
		</g>
		<g id="group358-129" transform="translate(34.3907,-17.4537)" v:mID="358" v:groupContext="group">
			<title>Tabelle.358</title>
			<g id="shape342-130" v:mID="342" v:groupContext="shape">
				<title>Tabelle.342</title>
				<path d="M0 88.69 L0 105.26 L16.56 105.26 L16.56 88.69 L0 88.69 Z" class="st9"/>
			</g>
			<g id="shape343-132" v:mID="343" v:groupContext="shape" transform="translate(6.95068,-9.69697)">
				<title>Tabelle.343</title>
				<path d="M1.72 100.28 C1.72 100.11 1.72 100.11 1.46 100.11 C1.12 100.37 0.77 100.54 0 100.54 L0 100.79 C0.26 100.79
							 0.69 100.79 1.12 100.62 L1.12 104.57 C1.12 104.91 1.03 105 0.34 105 L0.09 105 L0.09 105.26 L0.09 105.26
							 C0.34 105.17 1.03 105.17 1.37 105.17 C1.72 105.17 2.4 105.17 2.75 105.26 L2.75 105 L2.49 105 L2.49 105
							 C1.72 105 1.72 104.91 1.72 104.57 L1.72 100.28 Z" class="st13"/>
			</g>
			<g id="shape344-134" v:mID="344" v:groupContext="shape" transform="translate(6.17838,-8.15232)">
				<title>Tabelle.344</title>
				<path d="M0 105.26 L4.2 105.26" class="st14"/>
			</g>
			<g id="shape345-137" v:mID="345" v:groupContext="shape" transform="translate(6.60744,-1.71628)">
				<title>Tabelle.345</title>
				<path d="M0.69 100.71 C0.77 100.79 1.12 100.88 1.46 100.88 C2.4 100.88 3 100.19 3 100.02 C3 99.94 2.92 99.94 2.92
							 99.94 C2.92 99.94 2.83 99.94 2.83 99.94 C2.49 100.11 2.15 100.19 1.72 100.19 C1.29 100.19 0.94 100.11
							 0.69 99.94 C0.6 99.94 0.6 99.94 0.51 99.94 C0.43 99.94 0.43 100.02 0.43 100.19 L0.43 102.43 C0.43 102.6
							 0.43 102.68 0.6 102.68 C0.6 102.68 0.69 102.68 0.69 102.6 C0.77 102.43 1.12 102.08 1.72 102.08 C2.15
							 102.08 2.4 102.43 2.49 102.6 C2.57 102.85 2.57 103.2 2.57 103.54 C2.57 103.8 2.57 104.23 2.4 104.57
							 C2.23 104.83 1.89 105 1.46 105 C1.03 105 0.51 104.74 0.34 104.23 C0.34 104.23 0.43 104.23 0.43 104.23
							 C0.6 104.23 0.86 104.06 0.86 103.8 C0.86 103.54 0.6 103.45 0.43 103.45 C0.26 103.45 0 103.54 0 103.88
							 C0 104.57 0.6 105.26 1.54 105.26 C2.49 105.26 3.35 104.48 3.35 103.54 C3.35 102.68 2.66 101.82 1.72
							 101.82 C1.37 101.82 1.03 102 0.69 102.25 L0.69 100.71 Z" class="st13"/>
			</g>
		</g>
		<g id="group359-139" transform="translate(54.2333,-17.5742)" v:mID="359" v:groupContext="group">
			<title>Tabelle.359</title>
			<g id="shape346-140" v:mID="346" v:groupContext="shape">
				<title>Tabelle.346</title>
				<path d="M0 88.82 L0 105.26 L16.44 105.26 L16.44 88.82 L0 88.82 Z" class="st9"/>
			</g>
			<g id="shape347-142" v:mID="347" v:groupContext="shape" transform="translate(6.55934,-9.62638)">
				<title>Tabelle.347</title>
				<path d="M1.79 103.64 C1.87 103.55 2.21 103.3 2.3 103.21 C2.81 102.79 3.24 102.36 3.24 101.59 C3.24 100.74 2.47 100.15
							 1.53 100.15 C0.6 100.15 0 100.83 0 101.51 C-0 101.93 0.26 101.93 0.43 101.93 C0.6 101.93 0.85 101.85
							 0.85 101.51 C0.85 101.08 0.43 101.08 0.34 101.08 C0.51 100.57 1.02 100.4 1.45 100.4 C2.13 100.4 2.56
							 101 2.56 101.59 C2.56 102.45 1.96 103.04 1.02 103.89 L0.09 104.92 C-0 105 0 105 0 105.26 L3.07 105.26
							 L3.24 103.89 L2.98 103.89 L2.98 103.89 C2.98 103.98 2.98 104.4 2.81 104.58 C2.81 104.58 2.21 104.58
							 2.04 104.58 L0.68 104.58 L1.79 103.64 Z" class="st13"/>
			</g>
			<g id="shape348-144" v:mID="348" v:groupContext="shape" transform="translate(6.13341,-8.09297)">
				<title>Tabelle.348</title>
				<path d="M0 105.26 L4.09 105.26" class="st14"/>
			</g>
			<g id="shape349-147" v:mID="349" v:groupContext="shape" transform="translate(6.55934,-1.70378)">
				<title>Tabelle.349</title>
				<path d="M0.68 100.74 C0.77 100.83 1.02 100.91 1.36 100.91 C2.39 100.91 2.98 100.23 2.98 100.06 C2.98 99.98 2.9 99.98
							 2.81 99.98 C2.81 99.98 2.81 99.98 2.73 99.98 C2.47 100.15 2.04 100.23 1.7 100.23 C1.19 100.23 0.85 100.15
							 0.6 99.98 C0.51 99.98 0.51 99.98 0.51 99.98 C0.43 99.98 0.43 100.06 0.43 100.23 L0.43 102.45 C0.43 102.62
							 0.43 102.7 0.51 102.7 C0.6 102.7 0.6 102.7 0.68 102.62 C0.77 102.45 1.02 102.1 1.7 102.1 C2.13 102.1
							 2.3 102.45 2.39 102.62 C2.56 102.87 2.56 103.21 2.56 103.55 C2.56 103.81 2.56 104.23 2.3 104.58 C2.13
							 104.83 1.87 105 1.45 105 C0.94 105 0.51 104.75 0.26 104.23 C0.34 104.23 0.34 104.23 0.34 104.23 C0.6
							 104.23 0.77 104.06 0.77 103.81 C0.77 103.55 0.51 103.47 0.34 103.47 C0.26 103.47 0 103.55 0 103.89 C0
							 104.58 0.6 105.26 1.45 105.26 C2.47 105.26 3.24 104.49 3.24 103.55 C3.24 102.7 2.64 101.85 1.7 101.85
							 C1.28 101.85 0.94 102.02 0.68 102.28 L0.68 100.74 Z" class="st13"/>
			</g>
		</g>
		<g id="group360-149" transform="translate(74.0758,-17.5742)" v:mID="360" v:groupContext="group">
			<title>Tabelle.360</title>
			<g id="shape350-150" v:mID="350" v:groupContext="shape">
				<title>Tabelle.350</title>
				<path d="M0 88.82 L0 105.26 L16.44 105.26 L16.44 88.82 L0 88.82 Z" class="st9"/>
			</g>
			<g id="shape351-152" v:mID="351" v:groupContext="shape" transform="translate(6.55934,-9.456)">
				<title>Tabelle.351</title>
				<path d="M1.62 102.53 C2.21 102.53 2.56 102.96 2.56 103.72 C2.56 104.75 2.04 105 1.62 105 C1.19 105 0.6 104.83 0.34
							 104.4 C0.6 104.4 0.85 104.23 0.85 103.98 C0.85 103.72 0.6 103.55 0.43 103.55 C0.17 103.55 0 103.72 0
							 104.06 C0 104.75 0.77 105.26 1.62 105.26 C2.64 105.26 3.41 104.49 3.41 103.72 C3.41 103.13 2.9 102.53
							 2.04 102.36 C2.64 102.1 3.15 101.59 3.15 101 C3.15 100.4 2.47 99.98 1.62 99.98 C0.85 99.98 0.17 100.4
							 0.17 101 C0.17 101.25 0.43 101.42 0.6 101.42 C0.85 101.42 1.02 101.25 1.02 101 C1.02 100.74 0.77 100.57
							 0.6 100.57 C0.94 100.15 1.53 100.15 1.62 100.15 C1.79 100.15 2.39 100.23 2.39 101 C2.39 101.51 2.21
							 101.85 2.04 102.02 C1.87 102.19 1.7 102.28 1.19 102.28 C1.02 102.28 1.02 102.28 1.02 102.36 C1.02 102.53
							 1.11 102.53 1.19 102.53 L1.62 102.53 Z" class="st13"/>
			</g>
			<g id="shape352-154" v:mID="352" v:groupContext="shape" transform="translate(6.21859,-8.09297)">
				<title>Tabelle.352</title>
				<path d="M0 105.26 L4.09 105.26" class="st14"/>
			</g>
			<g id="shape353-157" v:mID="353" v:groupContext="shape" transform="translate(6.64453,-1.70378)">
				<title>Tabelle.353</title>
				<path d="M0.6 100.74 C0.77 100.83 1.02 100.91 1.36 100.91 C2.3 100.91 2.9 100.23 2.9 100.06 C2.9 99.98 2.9 99.98
							 2.81 99.98 C2.81 99.98 2.81 99.98 2.73 99.98 C2.39 100.15 2.04 100.23 1.62 100.23 C1.19 100.23 0.85
							 100.15 0.6 99.98 C0.51 99.98 0.51 99.98 0.43 99.98 C0.34 99.98 0.34 100.06 0.34 100.23 L0.34 102.45
							 C0.34 102.62 0.34 102.7 0.51 102.7 C0.51 102.7 0.6 102.7 0.6 102.62 C0.68 102.45 1.02 102.1 1.7 102.1
							 C2.13 102.1 2.3 102.45 2.39 102.62 C2.47 102.87 2.47 103.21 2.47 103.55 C2.47 103.81 2.47 104.23 2.3
							 104.58 C2.13 104.83 1.79 105 1.45 105 C0.94 105 0.43 104.75 0.26 104.23 C0.26 104.23 0.34 104.23 0.34
							 104.23 C0.51 104.23 0.77 104.06 0.77 103.81 C0.77 103.55 0.51 103.47 0.34 103.47 C0.17 103.47 0 103.55
							 0 103.89 C0 104.58 0.51 105.26 1.45 105.26 C2.39 105.26 3.24 104.49 3.24 103.55 C3.24 102.7 2.56 101.85
							 1.7 101.85 C1.28 101.85 0.94 102.02 0.6 102.28 L0.6 100.74 Z" class="st13"/>
			</g>
		</g>
		<g id="group361-159" transform="translate(93.9183,-17.0073)" v:mID="361" v:groupContext="group">
			<title>Tabelle.361</title>
			<g id="shape354-160" v:mID="354" v:groupContext="shape">
				<title>Tabelle.354</title>
				<path d="M0 88.25 L0 105.26 L17.01 105.26 L17.01 88.25 L0 88.25 Z" class="st9"/>
			</g>
			<g id="shape355-162" v:mID="355" v:groupContext="shape" transform="translate(6.60928,-9.95832)">
				<title>Tabelle.355</title>
				<path d="M2.91 100.15 C2.91 99.97 2.91 99.88 2.73 99.88 C2.64 99.88 2.64 99.88 2.56 100.06 L0 103.76 L0 103.93 L2.2
							 103.93 L2.2 104.64 L2.2 104.64 C2.2 104.9 2.2 104.99 1.59 104.99 L1.41 104.99 L1.41 105.26 L1.41 105.26
							 C2.11 105.26 2.11 105.26 2.56 105.26 C3 105.26 3 105.26 3.7 105.26 L3.7 104.99 L3.52 104.99 L3.52 104.99
							 C2.91 104.99 2.91 104.9 2.91 104.64 L2.91 103.93 L3.7 103.93 L3.7 103.76 L2.91 103.76 L2.91 100.15 ZM2.29
							 100.76 L2.29 103.76 L0.26 103.76 L2.29 100.76 Z" class="st13"/>
			</g>
			<g id="shape356-164" v:mID="356" v:groupContext="shape" transform="translate(6.34491,-8.37204)">
				<title>Tabelle.356</title>
				<path d="M-0 105.26 L4.23 105.26" class="st14"/>
			</g>
			<g id="shape357-167" v:mID="357" v:groupContext="shape" transform="translate(6.78552,-1.67441)">
				<title>Tabelle.357</title>
				<path d="M0.7 100.59 C0.79 100.59 1.15 100.67 1.5 100.67 C2.47 100.67 3.08 99.97 3.08 99.88 C3.08 99.79 3 99.79 3
							 99.79 C2.91 99.79 2.91 99.79 2.82 99.79 C2.56 99.88 2.2 99.97 1.76 99.97 C1.32 99.97 0.88 99.88 0.62
							 99.79 C0.53 99.79 0.53 99.79 0.53 99.79 C0.44 99.79 0.44 99.88 0.44 99.97 L0.44 102.35 C0.44 102.44
							 0.44 102.52 0.53 102.52 C0.62 102.52 0.62 102.52 0.7 102.44 C0.79 102.35 1.06 101.91 1.76 101.91 C2.2
							 101.91 2.38 102.26 2.47 102.44 C2.64 102.7 2.64 103.14 2.64 103.41 C2.64 103.67 2.64 104.11 2.38 104.46
							 C2.29 104.73 1.94 104.99 1.5 104.99 C0.97 104.99 0.53 104.64 0.35 104.11 C0.35 104.11 0.44 104.11 0.44
							 104.11 C0.62 104.11 0.79 104.02 0.79 103.76 C0.79 103.49 0.53 103.32 0.44 103.32 C0.26 103.32 0 103.41
							 0 103.76 C0 104.46 0.62 105.26 1.5 105.26 C2.56 105.26 3.35 104.46 3.35 103.49 C3.35 102.52 2.73 101.73
							 1.76 101.73 C1.41 101.73 0.97 101.82 0.7 102.08 L0.7 100.59 Z" class="st13"/>
			</g>
		</g>
		<g id="group367-169" transform="translate(113.761,-0.566357)" v:mID="367" v:groupContext="group">
			<title>Tabelle.367</title>
			<g id="shape364-170" v:mID="364" v:groupContext="shape">
				<title>Tabelle.364</title>
				<path d="M0 88.82 L0 105.26 L16.44 105.26 L16.44 88.82 L0 88.82 Z" class="st9"/>
			</g>
			<g id="shape365-172" v:mID="365" v:groupContext="shape" transform="translate(3.49264,-6.64476)">
				<title>Tabelle.365</title>
				<path d="M3.24 101.93 C3.32 101.68 3.58 100.74 4.26 100.74 C4.34 100.74 4.6 100.74 4.86 100.83 C4.51 100.91 4.34
							 101.17 4.34 101.42 C4.34 101.59 4.43 101.76 4.69 101.76 C4.94 101.76 5.28 101.59 5.28 101.17 C5.28 100.66
							 4.69 100.49 4.34 100.49 C3.66 100.49 3.32 101 3.24 101.25 C2.9 100.57 2.39 100.49 2.04 100.49 C0.94
							 100.49 0.34 101.85 0.34 102.1 C0.34 102.19 0.51 102.19 0.51 102.19 C0.6 102.19 0.6 102.19 0.6 102.1
							 C0.94 101 1.7 100.74 2.04 100.74 C2.21 100.74 2.64 100.83 2.64 101.42 C2.64 101.76 2.39 102.45 2.04
							 103.89 C1.87 104.58 1.53 105 1.02 105 C0.94 105 0.77 105 0.51 104.92 C0.77 104.83 1.02 104.58 1.02 104.32
							 C1.02 104.06 0.77 103.98 0.6 103.98 C0.34 103.98 0 104.23 0 104.58 C0 105 0.6 105.26 1.02 105.26 C1.7
							 105.26 2.13 104.49 2.13 104.4 C2.3 104.83 2.64 105.26 3.32 105.26 C4.34 105.26 4.94 103.89 4.94 103.64
							 C4.94 103.55 4.86 103.55 4.86 103.55 C4.77 103.55 4.69 103.55 4.69 103.64 C4.34 104.75 3.66 105 3.32
							 105 C2.9 105 2.73 104.66 2.73 104.32 C2.73 104.06 2.81 103.89 2.9 103.38 L3.24 101.93 Z" class="st13"/>
			</g>
			<g id="shape366-174" v:mID="366" v:groupContext="shape" transform="translate(9.62605,-5.02616)">
				<title>Tabelle.366</title>
				<path d="M0.68 100.74 C0.77 100.83 1.11 100.91 1.45 100.91 C2.39 100.91 2.98 100.23 2.98 100.06 C2.98 99.98 2.9 99.98
							 2.9 99.98 C2.9 99.98 2.9 99.98 2.81 100.06 C2.47 100.15 2.13 100.23 1.7 100.23 C1.28 100.23 0.85 100.15
							 0.68 100.06 C0.6 99.98 0.51 99.98 0.51 99.98 C0.43 99.98 0.43 100.06 0.43 100.23 L0.43 102.45 C0.43
							 102.62 0.43 102.7 0.6 102.7 C0.68 102.7 0.68 102.62 0.68 102.62 C0.77 102.53 1.11 102.1 1.7 102.1 C2.13
							 102.1 2.39 102.45 2.47 102.62 C2.56 102.87 2.56 103.21 2.56 103.47 C2.56 103.81 2.56 104.23 2.39 104.58
							 C2.21 104.83 1.87 105 1.53 105 C1.02 105 0.51 104.75 0.34 104.23 C0.34 104.23 0.43 104.23 0.43 104.23
							 C0.6 104.23 0.77 104.06 0.77 103.81 C0.77 103.55 0.6 103.47 0.43 103.47 C0.26 103.47 0 103.55 0 103.89
							 C-0 104.58 0.68 105.26 1.53 105.26 C2.47 105.26 3.32 104.49 3.32 103.55 C3.32 102.7 2.64 101.85 1.7
							 101.85 C1.36 101.85 1.02 102.02 0.68 102.28 L0.68 100.74 Z" class="st13"/>
			</g>
		</g>
	</g>
</svg>
