<?xml version="1.0" encoding="UTF-8" standalone="no"?>
<!DOCTYPE svg PUBLIC "-//W3C//DTD SVG 1.1//EN" "http://www.w3.org/Graphics/SVG/1.1/DTD/svg11.dtd">
<!-- Generiert durch Microsoft Visio, SVG Export problem1_graph.svg Page-1 -->
<svg xmlns="http://www.w3.org/2000/svg" xmlns:xlink="http://www.w3.org/1999/xlink" xmlns:ev="http://www.w3.org/2001/xml-events"
		xmlns:v="http://schemas.microsoft.com/visio/2003/SVGExtensions/" width="8.26772in" height="11.6929in"
		viewBox="0 0 595.276 841.89" xml:space="preserve" color-interpolation-filters="sRGB" class="st12">
	<v:documentProperties v:langID="1033" v:metric="true" v:viewMarkup="false">
		<v:userDefs>
			<v:ud v:nameU="msvNoAutoConnect" v:val="VT0(1):26"/>
		</v:userDefs>
	</v:documentProperties>

	<style type="text/css">
	<![CDATA[
		.st1 {marker-end:url(#mrkr5-6);stroke:#000000;stroke-linecap:round;stroke-linejoin:round;stroke-width:0.5}
		.st2 {fill:#000000;fill-opacity:1;stroke:#000000;stroke-opacity:1;stroke-width:0.25773195876289}
		.st3 {stroke:#000000;stroke-linecap:round;stroke-linejoin:round;stroke-width:0.25}
		.st4 {fill:none;stroke:none;stroke-linecap:round;stroke-linejoin:round;stroke-width:0.75}
		.st5 {fill:#000000;font-family:CMU Serif;font-size:0.833336em;font-style:italic}
		.st6 {marker-start:url(#mrkr5-18);stroke:#000000;stroke-linecap:round;stroke-linejoin:round;stroke-width:0.5}
		.st7 {fill:#000000;font-family:CMU Serif;font-size:0.833336em}
		.st8 {fill:none;stroke:#c00000;stroke-linecap:round;stroke-linejoin:round;stroke-width:1}
		.st9 {stroke:#c00000;stroke-linecap:round;stroke-linejoin:round;stroke-width:0.75}
		.st10 {fill:#ffffff;stroke:none;stroke-linecap:round;stroke-linejoin:round;stroke-width:0.75}
		.st11 {fill:#000000;stroke:none;stroke-linecap:butt;stroke-width:1}
		.st12 {fill:none;fill-rule:evenodd;font-size:12px;overflow:visible;stroke-linecap:square;stroke-miterlimit:3}
	]]>
	</style>

	<defs id="Markers">
		<g id="lend5">
			<path d="M 2 1 L 0 0 L 1.98117 -0.993387 C 1.67173 -0.364515 1.67301 0.372641 1.98465 1.00043 " style="stroke:none"/>
		</g>
		<marker id="mrkr5-6" class="st2" v:arrowType="5" v:arrowSize="0" v:setback="6.79" refX="-6.79" orient="auto"
				markerUnits="strokeWidth" overflow="visible">
			<use xlink:href="#lend5" transform="scale(-3.88,-3.88) "/>
		</marker>
		<marker id="mrkr5-18" class="st2" v:arrowType="5" v:arrowSize="0" v:setback="6.07" refX="6.07" orient="auto"
				markerUnits="strokeWidth" overflow="visible">
			<use xlink:href="#lend5" transform="scale(3.88) "/>
		</marker>
	</defs>
	<g v:mID="0" v:index="1" v:groupContext="foregroundPage">
		<title>Zeichenblatt-1</title>
		<v:pageProperties v:drawingScale="0.0393701" v:pageScale="0.0393701" v:drawingUnits="24" v:shadowOffsetX="8.50394"
				v:shadowOffsetY="-8.50394"/>
		<g id="shape1-1" v:mID="1" v:groupContext="shape" transform="translate(37.7008,-778.334) rotate(5.38654E-07)">
			<title>Tabelle.1</title>
			<path d="M0 841.89 L99.79 841.89" class="st1"/>
		</g>
		<g id="shape2-7" v:mID="2" v:groupContext="shape" transform="translate(-716.315,75.1181) rotate(-90)">
			<title>Tabelle.2</title>
			<path d="M0 841.89 L37.07 841.89" class="st3"/>
		</g>
		<g id="shape3-10" v:mID="3" v:groupContext="shape" transform="translate(140.882,-772.665)">
			<title>Tabelle.3</title>
			<desc>x</desc>
			<v:textBlock v:margins="rect(0,0,0,0)" v:tabSpace="42.5197"/>
			<v:textRect cx="8.50394" cy="836.22" width="17.01" height="11.3386"/>
			<rect x="0" y="830.551" width="17.0079" height="11.3386" class="st4"/>
			<text x="6.18" y="839.22" class="st5" v:langID="1033"><v:paragraph v:horizAlign="1"/><v:tabList/>x</text>		</g>
		<g id="shape4-13" v:mID="4" v:groupContext="shape" transform="translate(888.094,35.2093) rotate(90)">
			<title>Tabelle.4</title>
			<path d="M3.04 841.89 L3.4 841.89 L39.91 841.89" class="st6"/>
		</g>
		<g id="shape5-19" v:mID="5" v:groupContext="shape" transform="translate(37.7008,-806.68)">
			<title>Tabelle.5</title>
			<desc>u</desc>
			<v:textBlock v:margins="rect(0,0,0,0)" v:tabSpace="42.5197"/>
			<v:textRect cx="8.50394" cy="836.22" width="17.01" height="11.3386"/>
			<rect x="0" y="830.551" width="17.0079" height="11.3386" class="st4"/>
			<text x="5.82" y="839.22" class="st5" v:langID="2055"><v:paragraph v:horizAlign="1"/><v:tabList/>u</text>		</g>
		<g id="shape6-22" v:mID="6" v:groupContext="shape" transform="translate(23.5276,-772.665)">
			<title>Tabelle.6</title>
			<desc>0</desc>
			<v:textBlock v:margins="rect(0,0,0,0)" v:tabSpace="42.5197"/>
			<v:textRect cx="8.50394" cy="836.22" width="17.01" height="11.3386"/>
			<rect x="0" y="830.551" width="17.0079" height="11.3386" class="st4"/>
			<text x="6" y="839.22" class="st7" v:langID="1033"><v:paragraph v:horizAlign="1"/><v:tabList/>0</text>		</g>
		<g id="shape7-25" v:mID="7" v:groupContext="shape" transform="translate(43.3701,-775.499)">
			<title>Tabelle.7</title>
			<ellipse cx="2.83465" cy="839.055" rx="2.83465" ry="2.83465" class="st8"/>
		</g>
		<g id="shape8-27" v:mID="8" v:groupContext="shape" transform="translate(122.74,-775.499)">
			<title>Tabelle.8</title>
			<ellipse cx="2.83465" cy="839.055" rx="2.83465" ry="2.83465" class="st8"/>
		</g>
		<g id="shape9-29" v:mID="9" v:groupContext="shape" transform="translate(46.2048,-768.545) rotate(6.31698E-06)">
			<title>Tabelle.9</title>
			<path d="M0 832.1 C3.38 826.84 9.62 818.65 18.35 817.31 C20.52 816.98 22.86 817.07 24.9 817.53 C32.94 819.35 36.55 826.88
						 41.52 833.64 C44.14 837.2 47.13 840.56 50.81 841.56 C59.4 843.92 71.75 833.48 79.37 832.1" class="st9"/>
		</g>
		<g id="group10-32" transform="translate(37.7008,-748.346)" v:mID="10" v:groupContext="group">
			<title>Tabelle.10</title>
			<g id="shape11-33" v:mID="11" v:groupContext="shape">
				<title>Tabelle.11</title>
				<rect x="0" y="824.882" width="17.0079" height="17.0079" class="st10"/>
			</g>
			<g id="group12-35" transform="translate(6.20706,-5.41639)" v:mID="12" v:groupContext="group">
				<title>Tabelle.12</title>
				<g id="shape13-36" v:mID="13" v:groupContext="shape">
					<title>path1061</title>
					<path d="M4.59 838.17 C4.59 837.3 4.55 836.42 4.16 835.61 C3.66 834.56 2.77 834.39 2.3 834.39 C1.66 834.39 0.86
								 834.67 0.41 835.69 C0.06 836.44 0 837.3 0 838.17 C0 838.98 0.05 839.97 0.5 840.8 C0.97 841.67 1.77
								 841.89 2.3 841.89 C2.88 841.89 3.72 841.67 4.19 840.62 C4.55 839.87 4.59 839.03 4.59 838.17 ZM2.3
								 841.66 C1.88 841.66 1.22 841.39 1.03 840.34 C0.91 839.69 0.91 838.67 0.91 838.03 C0.91 837.34 0.91
								 836.62 1 836.03 C1.2 834.73 2.02 834.62 2.3 834.62 C2.66 834.62 3.38 834.83 3.58 835.91 C3.69 836.51
								 3.69 837.34 3.69 838.03 C3.69 838.86 3.69 839.59 3.56 840.3 C3.41 841.33 2.78 841.66 2.3 841.66
								 Z" class="st11"/>
				</g>
			</g>
		</g>
		<g id="group14-38" transform="translate(117.071,-748.346)" v:mID="14" v:groupContext="group">
			<title>Tabelle.14</title>
			<g id="shape15-39" v:mID="15" v:groupContext="shape">
				<title>Tabelle.15</title>
				<rect x="0" y="824.882" width="17.0079" height="17.0079" class="st10"/>
			</g>
			<g id="group16-41" transform="translate(6.84981,-5.65076)" v:mID="16" v:groupContext="group">
				<title>Tabelle.16</title>
				<g id="shape17-42" v:mID="17" v:groupContext="shape">
					<title>path1064</title>
					<path d="M2.23 834.91 C2.23 834.66 2.23 834.62 1.98 834.62 C1.31 835.33 0.34 835.33 0 835.33 L0 835.66 C0.22
								 835.66 0.86 835.66 1.44 835.37 L1.44 841.03 C1.44 841.42 1.39 841.55 0.42 841.55 L0.06 841.55 L0.06
								 841.89 C0.45 841.86 1.39 841.86 1.83 841.86 C2.27 841.86 3.22 841.86 3.59 841.89 L3.59 841.55 L3.25
								 841.55 C2.27 841.55 2.23 841.44 2.23 841.03 L2.23 834.91 Z" class="st11"/>
				</g>
			</g>
		</g>
	</g>
</svg>
