<?xml version="1.0" encoding="UTF-8" standalone="no"?>
<!DOCTYPE svg PUBLIC "-//W3C//DTD SVG 1.1//EN" "http://www.w3.org/Graphics/SVG/1.1/DTD/svg11.dtd">
<!-- Generiert durch Microsoft Visio, SVG Export problem_55_graph.svg Zeichenblatt-1 -->
<svg xmlns="http://www.w3.org/2000/svg" xmlns:xlink="http://www.w3.org/1999/xlink" xmlns:ev="http://www.w3.org/2001/xml-events"
		xmlns:v="http://schemas.microsoft.com/visio/2003/SVGExtensions/" width="8.26772in" height="11.6929in"
		viewBox="0 0 595.276 841.889" xml:space="preserve" color-interpolation-filters="sRGB" class="st20">
	<v:documentProperties v:langID="1033">
		<v:userDefs>
			<v:ud v:nameU="msvNoAutoConnect" v:val="VT0(1):26"/>
		</v:userDefs>
	</v:documentProperties>

	<style type="text/css">
	<![CDATA[
		.st1 {fill:#c00000;stroke:none;stroke-linecap:butt;stroke-width:0.999999}
		.st2 {fill:#009900;stroke:none;stroke-linecap:butt;stroke-width:0.999999}
		.st3 {fill:none}
		.st4 {stroke:#009900;stroke-linecap:round;stroke-linejoin:round;stroke-width:0.749999}
		.st5 {marker-end:url(#mrkr5-19);stroke:#000000;stroke-linecap:round;stroke-linejoin:round;stroke-width:0.499999}
		.st6 {fill:#000000;fill-opacity:1;stroke:#000000;stroke-opacity:1;stroke-width:0.25773168608175}
		.st7 {fill:none;stroke:none;stroke-linecap:round;stroke-linejoin:round;stroke-width:0.749999}
		.st8 {fill:#000000;font-family:CMU Serif;font-size:0.833336em;font-style:italic}
		.st9 {fill:#f2dcda;stroke:none;stroke-linecap:round;stroke-linejoin:round;stroke-width:0.530329}
		.st10 {fill:none;stroke:#009900;stroke-linecap:round;stroke-linejoin:round;stroke-width:0.530329}
		.st11 {fill:none;stroke:#0070c0;stroke-linecap:round;stroke-linejoin:round;stroke-width:0.176776}
		.st12 {stroke:#0070c0;stroke-linecap:round;stroke-linejoin:round;stroke-width:0.176776}
		.st13 {marker-start:url(#mrkr5-60);stroke:#000000;stroke-linecap:round;stroke-linejoin:round;stroke-width:0.353553}
		.st14 {fill:#000000;fill-opacity:1;stroke:#000000;stroke-opacity:1;stroke-width:0.19712431636798}
		.st15 {marker-start:url(#mrkr5-85);stroke:#000000;stroke-linecap:round;stroke-linejoin:round;stroke-width:0.499999}
		.st16 {stroke:#c00000;stroke-linecap:round;stroke-linejoin:round;stroke-width:0.749999}
		.st17 {stroke:#0066ff;stroke-linecap:round;stroke-linejoin:round;stroke-width:0.75}
		.st18 {fill:#009900;stroke:none;stroke-linecap:butt;stroke-width:1}
		.st19 {fill:#0066ff;stroke:none;stroke-linecap:butt;stroke-width:1}
		.st20 {fill:none;fill-rule:evenodd;font-size:12px;overflow:visible;stroke-linecap:square;stroke-miterlimit:3}
	]]>
	</style>

	<defs id="Markers">
		<g id="lend5">
			<path d="M 2 1 L 0 0 L 1.98117 -0.993387 C 1.67173 -0.364515 1.67301 0.372641 1.98465 1.00043 " style="stroke:none"/>
		</g>
		<marker id="mrkr5-19" class="st6" v:arrowType="5" v:arrowSize="0" v:setback="0" refX="-0" orient="auto"
				markerUnits="strokeWidth" overflow="visible">
			<use xlink:href="#lend5" transform="scale(-3.8800041050552,-3.8800041050552) "/>
		</marker>
		<marker id="mrkr5-60" class="st14" v:arrowType="5" v:arrowSize="0" v:setback="0" refX="0" orient="auto"
				markerUnits="strokeWidth" overflow="visible">
			<use xlink:href="#lend5" transform="scale(5.0729408650593) "/>
		</marker>
		<marker id="mrkr5-85" class="st6" v:arrowType="5" v:arrowSize="0" v:setback="0" refX="0" orient="auto"
				markerUnits="strokeWidth" overflow="visible">
			<use xlink:href="#lend5" transform="scale(3.8800041050552) "/>
		</marker>
	</defs>
	<g v:mID="0" v:index="1" v:groupContext="foregroundPage">
		<title>Zeichenblatt-1</title>
		<v:pageProperties v:drawingScale="0.0393701" v:pageScale="0.0393701" v:drawingUnits="24" v:shadowOffsetX="8.50393"
				v:shadowOffsetY="-8.50393"/>
		<g id="group27-1" transform="translate(76.7434,-797.953)" v:mID="27" v:groupContext="group">
			<title>Tabelle.68</title>
			<g id="shape28-2" v:mID="28" v:groupContext="shape">
				<title>path240650</title>
				<path d="M6.91 840.12 L6.63 840.12 C6.58 840.41 6.53 840.66 6.44 840.92 C6.38 841.09 6.34 841.19 5.7 841.19 L4.84
							 841.19 C4.98 840.58 5.31 840.05 5.81 839.33 C6.33 838.55 6.77 837.8 6.77 836.94 C6.77 835.42 5.3 834.2
							 3.45 834.2 C1.58 834.2 0.13 835.44 0.13 836.94 C0.13 837.8 0.58 838.55 1.09 839.33 C1.56 840.05 1.92
							 840.58 2.06 841.19 L1.19 841.19 C0.55 841.19 0.52 841.09 0.47 840.94 C0.38 840.69 0.33 840.39 0.27 840.12
							 L0 840.12 L0.36 841.89 L2.09 841.89 C2.34 841.89 2.38 841.89 2.38 841.66 C2.38 840.89 2.03 839.94 1.78
							 839.23 C1.56 838.61 1.25 837.75 1.25 836.92 C1.25 835.19 2.45 834.44 3.44 834.44 C4.48 834.44 5.64 835.23
							 5.64 836.92 C5.64 837.75 5.34 838.58 5.03 839.47 C4.88 839.92 4.52 840.91 4.52 841.66 C4.52 841.89 4.55
							 841.89 4.81 841.89 L6.55 841.89 L6.91 840.12 Z" class="st1"/>
			</g>
		</g>
		<g id="group29-4" transform="translate(104.882,-797.802)" v:mID="29" v:groupContext="group">
			<title>Tabelle.190</title>
			<g id="group30-5" v:mID="30" v:groupContext="group">
				<title>Tabelle.186</title>
				<g id="shape31-6" v:mID="31" v:groupContext="shape">
					<title>path240719</title>
					<path d="M4.61 837.95 C4.5 837.28 4.06 836.67 3.2 836.67 C2.55 836.67 1.83 836.84 0.98 837.7 C0.08 838.61 0 839.61
								 0 839.95 C0 840.62 0.48 841.89 2 841.89 C4.59 841.89 5.73 838.23 5.73 836.67 C5.73 834.94 4.72 833.84
								 3.38 833.84 C1.8 833.84 1.3 835.26 1.3 835.58 C1.3 835.72 1.39 835.95 1.72 835.95 C2.08 835.95 2.3
								 835.62 2.3 835.37 C2.3 835 1.97 835 1.78 835 C2.27 834.19 3.05 834.12 3.36 834.12 C4.16 834.12 4.92
								 834.69 4.92 836.09 C4.92 836.51 4.86 837.08 4.63 837.95 L4.61 837.95 ZM2.03 841.59 C0.84 841.59
								 0.84 840.47 0.84 840.36 C0.84 840.06 1.11 838.53 1.56 837.87 C2 837.26 2.53 836.91 3.2 836.91 C4.39
								 836.91 4.42 838.14 4.42 838.36 C4.42 839.14 3.72 841.59 2.03 841.59 Z" class="st2"/>
				</g>
			</g>
			<g id="group32-8" transform="translate(6.44387,-0.234375)" v:mID="32" v:groupContext="group">
				<title>Tabelle.188</title>
				<g id="shape33-9" v:mID="33" v:groupContext="shape">
					<title>path240650</title>
					<path d="M6.91 840.12 L6.63 840.12 C6.58 840.41 6.53 840.66 6.44 840.92 C6.38 841.09 6.34 841.19 5.7 841.19 L4.84
								 841.19 C4.98 840.58 5.31 840.05 5.81 839.33 C6.33 838.55 6.77 837.8 6.77 836.94 C6.77 835.42 5.3
								 834.2 3.45 834.2 C1.58 834.2 0.13 835.44 0.13 836.94 C0.13 837.8 0.58 838.55 1.09 839.33 C1.56 840.05
								 1.92 840.58 2.06 841.19 L1.19 841.19 C0.55 841.19 0.52 841.09 0.47 840.94 C0.38 840.69 0.33 840.39
								 0.27 840.12 L0 840.12 L0.36 841.89 L2.09 841.89 C2.34 841.89 2.38 841.89 2.38 841.66 C2.38 840.89
								 2.03 839.94 1.78 839.23 C1.56 838.61 1.25 837.75 1.25 836.92 C1.25 835.19 2.45 834.44 3.44 834.44
								 C4.48 834.44 5.64 835.23 5.64 836.92 C5.64 837.75 5.34 838.58 5.03 839.47 C4.88 839.92 4.52 840.91
								 4.52 841.66 C4.52 841.89 4.55 841.89 4.81 841.89 L6.55 841.89 L6.91 840.12 Z" class="st2"/>
				</g>
			</g>
		</g>
		<g id="shape34-11" v:mID="34" v:groupContext="shape" transform="translate(-624.585,-364.874) rotate(-60)">
			<title>Tabelle.191</title>
			<path d="M0 841.89 L11.32 841.89 L0 841.89 Z" class="st3"/>
			<path d="M0 841.89 L11.32 841.89" class="st4"/>
		</g>
		<g id="shape36-14" v:mID="36" v:groupContext="shape" transform="translate(22.9383,-766.771) rotate(5.38653E-07)">
			<title>Tabelle.196</title>
			<path d="M0 841.89 L99.79 841.89 L103.18 841.89" class="st5"/>
		</g>
		<g id="shape37-20" v:mID="37" v:groupContext="shape" transform="translate(126.12,-761.102)">
			<title>Tabelle.208</title>
			<desc>x</desc>
			<v:userDefs/>
			<v:textBlock v:margins="rect(0,0,0,0)" v:tabSpace="42.5196"/>
			<v:textRect cx="8.50358" cy="836.219" width="17.01" height="11.3386"/>
			<rect x="0" y="830.55" width="17.0079" height="11.3386" class="st7"/>
			<text x="6.18" y="839.22" class="st8" v:langID="1033"><v:paragraph v:horizAlign="1"/><v:tabList/>x</text>		</g>
		<g id="shape39-23" v:mID="39" v:groupContext="shape" transform="translate(45.3303,-767.055)">
			<title>Tabelle.194</title>
			<path d="M-9.64 841.89 L68.6 841.89 L87.87 822.61 L9.64 822.61 L-9.64 841.89 Z" class="st9"/>
		</g>
		<g id="shape40-25" v:mID="40" v:groupContext="shape" transform="translate(45.3303,-767.055)">
			<title>Tabelle.195</title>
			<path d="M-9.64 841.89 L68.6 841.89 L87.87 822.61 L9.64 822.61 L-9.64 841.89 Z" class="st10"/>
		</g>
		<g id="shape41-27" v:mID="41" v:groupContext="shape" transform="translate(73.1102,-766.063)">
			<title>Tabelle.197</title>
			<path d="M3 840.81 a1.62159 0.619391 166.72 1 0 -3.15641 0.745128 a1.62159 0.619391 166.72 1 0 3.15641 -0.745128 Z"
					class="st11"/>
		</g>
		<g id="shape42-29" v:mID="42" v:groupContext="shape" transform="translate(92.9527,-766.063)">
			<title>Tabelle.198</title>
			<path d="M3 840.81 a1.62159 0.619391 166.72 1 0 -3.15641 0.745128 a1.62159 0.619391 166.72 1 0 3.15641 -0.745128 Z"
					class="st11"/>
		</g>
		<g id="shape43-31" v:mID="43" v:groupContext="shape" transform="translate(53.2677,-766.063)">
			<title>Tabelle.199</title>
			<path d="M3 840.81 a1.62159 0.619391 166.72 1 0 -3.15641 0.745128 a1.62159 0.619391 166.72 1 0 3.15641 -0.745128 Z"
					class="st11"/>
		</g>
		<g id="shape44-33" v:mID="44" v:groupContext="shape" transform="translate(-540.62,-520.188) rotate(-45)">
			<title>Tabelle.200</title>
			<path d="M0 841.89 L32.07 841.89 L0 841.89 Z" class="st3"/>
			<path d="M0 841.89 L32.07 841.89" class="st12"/>
		</g>
		<g id="shape45-36" v:mID="45" v:groupContext="shape" transform="translate(-520.778,-520.188) rotate(-45)">
			<title>Tabelle.201</title>
			<path d="M0 841.89 L32.07 841.89 L0 841.89 Z" class="st3"/>
			<path d="M0 841.89 L32.07 841.89" class="st12"/>
		</g>
		<g id="shape46-39" v:mID="46" v:groupContext="shape" transform="translate(-500.935,-520.188) rotate(-45)">
			<title>Tabelle.202</title>
			<path d="M0 841.89 L32.07 841.89 L0 841.89 Z" class="st3"/>
			<path d="M0 841.89 L32.07 841.89" class="st12"/>
		</g>
		<g id="shape47-42" v:mID="47" v:groupContext="shape" transform="translate(-481.093,-520.188) rotate(-45)">
			<title>Tabelle.203</title>
			<path d="M0 841.89 L32.07 841.89 L0 841.89 Z" class="st3"/>
			<path d="M0 841.89 L32.07 841.89" class="st12"/>
		</g>
		<g id="shape48-45" v:mID="48" v:groupContext="shape" transform="translate(36.2595,-776.693)">
			<title>Tabelle.204</title>
			<path d="M0 841.89 L96.38 841.89 L0 841.89 Z" class="st3"/>
			<path d="M0 841.89 L96.38 841.89" class="st12"/>
		</g>
		<g id="shape49-48" v:mID="49" v:groupContext="shape" transform="translate(46.1808,-786.614)">
			<title>Tabelle.205</title>
			<path d="M0 841.89 L96.38 841.89 L0 841.89 Z" class="st3"/>
			<path d="M0 841.89 L96.38 841.89" class="st12"/>
		</g>
		<g id="shape50-51" v:mID="50" v:groupContext="shape" transform="translate(122.716,-775.984)">
			<title>Tabelle.206</title>
			<path d="M3 840.81 a1.62159 0.619391 166.72 1 0 -3.15641 0.745128 a1.62159 0.619391 166.72 1 0 3.15641 -0.745128 Z"
					class="st11"/>
		</g>
		<g id="shape51-53" v:mID="51" v:groupContext="shape" transform="translate(53.2677,-785.906)">
			<title>Tabelle.207</title>
			<path d="M3 840.81 a1.62159 0.619391 166.72 1 0 -3.15641 0.745128 a1.62159 0.619391 166.72 1 0 3.15641 -0.745128 Z"
					class="st11"/>
		</g>
		<g id="shape52-55" v:mID="52" v:groupContext="shape" transform="translate(654.245,646.325) rotate(135)">
			<title>Tabelle.209</title>
			<path d="M0 841.89 L2.15 841.89 L2.4 841.89 L34.08 841.89" class="st13"/>
		</g>
		<g id="shape54-61" v:mID="54" v:groupContext="shape" transform="translate(112.795,-785.906)">
			<title>Tabelle.211</title>
			<path d="M3 840.81 a1.62159 0.619391 166.72 1 0 -3.15641 0.745128 a1.62159 0.619391 166.72 1 0 3.15641 -0.745128 Z"
					class="st11"/>
		</g>
		<g id="shape55-63" v:mID="55" v:groupContext="shape" transform="translate(92.9527,-785.906)">
			<title>Tabelle.212</title>
			<path d="M3 840.81 a1.62159 0.619391 166.72 1 0 -3.15641 0.745128 a1.62159 0.619391 166.72 1 0 3.15641 -0.745128 Z"
					class="st11"/>
		</g>
		<g id="shape56-65" v:mID="56" v:groupContext="shape" transform="translate(73.1101,-785.906)">
			<title>Tabelle.213</title>
			<path d="M3 840.81 a1.62159 0.619391 166.72 1 0 -3.15641 0.745128 a1.62159 0.619391 166.72 1 0 3.15641 -0.745128 Z"
					class="st11"/>
		</g>
		<g id="shape57-67" v:mID="57" v:groupContext="shape" transform="translate(102.874,-775.984)">
			<title>Tabelle.214</title>
			<path d="M3 840.81 a1.62159 0.619391 166.72 1 0 -3.15641 0.745128 a1.62159 0.619391 166.72 1 0 3.15641 -0.745128 Z"
					class="st11"/>
		</g>
		<g id="shape58-69" v:mID="58" v:groupContext="shape" transform="translate(83.0315,-775.984)">
			<title>Tabelle.215</title>
			<path d="M3 840.81 a1.62159 0.619391 166.72 1 0 -3.15641 0.745128 a1.62159 0.619391 166.72 1 0 3.15641 -0.745128 Z"
					class="st11"/>
		</g>
		<g id="shape59-71" v:mID="59" v:groupContext="shape" transform="translate(63.1889,-775.984)">
			<title>Tabelle.216</title>
			<path d="M3 840.81 a1.62159 0.619391 166.72 1 0 -3.15641 0.745128 a1.62159 0.619391 166.72 1 0 3.15641 -0.745128 Z"
					class="st11"/>
		</g>
		<g id="shape60-73" v:mID="60" v:groupContext="shape" transform="translate(112.795,-766.063)">
			<title>Tabelle.217</title>
			<path d="M3 840.81 a1.62159 0.619391 166.72 1 0 -3.15641 0.745128 a1.62159 0.619391 166.72 1 0 3.15641 -0.745128 Z"
					class="st11"/>
		</g>
		<g id="shape62-75" v:mID="62" v:groupContext="shape" transform="translate(43.3464,-775.984)">
			<title>Tabelle.219</title>
			<path d="M3 840.81 a1.62159 0.619391 166.72 1 0 -3.15641 0.745128 a1.62159 0.619391 166.72 1 0 3.15641 -0.745128 Z"
					class="st11"/>
		</g>
		<g id="shape63-77" v:mID="63" v:groupContext="shape" transform="translate(54.6866,-790.866)">
			<title>Tabelle.63</title>
			<desc>y</desc>
			<v:userDefs/>
			<v:textBlock v:margins="rect(0,0,0,0)" v:tabSpace="42.5196"/>
			<v:textRect cx="8.50358" cy="836.219" width="17.01" height="11.3386"/>
			<rect x="0" y="830.55" width="17.0079" height="11.3386" class="st7"/>
			<text x="6.08" y="839.22" class="st8" v:langID="1033"><v:paragraph v:horizAlign="1"/><v:tabList/>y</text>		</g>
		<g id="shape64-80" v:mID="64" v:groupContext="shape" transform="translate(876.732,35.4262) rotate(90)">
			<title>Tabelle.65</title>
			<path d="M0 841.89 L3.03 841.89 L3.39 841.89 L48.19 841.89" class="st15"/>
		</g>
		<g id="shape65-86" v:mID="65" v:groupContext="shape" transform="translate(26.3401,-806.458)">
			<title>Tabelle.66</title>
			<desc>y</desc>
			<v:userDefs/>
			<v:textBlock v:margins="rect(0,0,0,0)" v:tabSpace="42.5196"/>
			<v:textRect cx="8.50358" cy="836.219" width="17.01" height="11.3386"/>
			<rect x="0" y="830.55" width="17.0079" height="11.3386" class="st7"/>
			<text x="5.82" y="839.22" class="st8" v:langID="2055"><v:paragraph v:horizAlign="1"/><v:tabList/>u</text>		</g>
		<g id="shape35-89" v:mID="35" v:groupContext="shape" transform="translate(-734.309,255.929) rotate(-103.431)">
			<title>Tabelle.193</title>
			<path d="M0 841.89 L14.02 841.89 L0 841.89 Z" class="st3"/>
			<path d="M0 841.89 L14.02 841.89" class="st16"/>
		</g>
		<g id="shape66-92" v:mID="66" v:groupContext="shape" transform="translate(34.8441,-755.16) rotate(5.38337E-07)">
			<title>Tabelle.66</title>
			<path d="M0 830.28 C3.21 828.07 5.8 823.64 10.6 822.26 C14.87 821.03 20.88 822.21 24.78 824.13 C29.64 826.51 31.22 830.02
						 33.77 834.19 C35.87 837.61 38.63 841.48 41.76 841.89 C46.23 842.48 51.44 836.04 57.02 832.27 C59.9 830.33
						 62.87 829.1 66.43 828.63 C70.93 828.03 76.37 828.64 79.2 830.28" class="st17"/>
		</g>
		<g id="shape61-95" v:mID="61" v:groupContext="shape" transform="translate(33.4252,-766.063)">
			<title>Tabelle.218</title>
			<path d="M3 840.81 a1.62159 0.619391 166.72 1 0 -3.15641 0.745128 a1.62159 0.619391 166.72 1 0 3.15641 -0.745128 Z"
					class="st11"/>
		</g>
		<g id="group272-97" transform="translate(134.646,-772.441)" v:mID="272" v:groupContext="group">
			<title>Tabelle.272</title>
			<g id="group255-98" transform="translate(-4.04676E-14,-2.19075)" v:mID="255" v:groupContext="group">
				<title>Tabelle.255</title>
				<g id="shape256-99" v:mID="256" v:groupContext="shape">
					<title>path253505</title>
					<path d="M2.96 841.27 C3.06 841.65 3.38 841.89 3.77 841.89 C4.1 841.89 4.32 841.68 4.46 841.37 C4.62 841.04 4.74
								 840.49 4.74 840.46 C4.74 840.37 4.66 840.37 4.63 840.37 C4.54 840.37 4.53 840.41 4.5 840.54 C4.37
								 841.06 4.2 841.68 3.81 841.68 C3.62 841.68 3.52 841.56 3.52 841.26 C3.52 841.06 3.63 840.62 3.71
								 840.31 L3.96 839.3 C3.99 839.17 4.08 838.81 4.12 838.68 C4.17 838.47 4.26 838.11 4.26 838.06 C4.26
								 837.89 4.13 837.81 3.99 837.81 C3.95 837.81 3.71 837.82 3.63 838.14 C3.46 838.81 3.05 840.42 2.94
								 840.91 C2.93 840.94 2.56 841.68 1.89 841.68 C1.41 841.68 1.32 841.27 1.32 840.93 C1.32 840.41 1.58
								 839.68 1.82 839.05 C1.93 838.77 1.98 838.64 1.98 838.47 C1.98 838.05 1.68 837.71 1.21 837.71 C0.34
								 837.71 0 839.05 0 839.13 C0 839.22 0.09 839.22 0.12 839.22 C0.21 839.22 0.21 839.21 0.26 839.05
								 C0.49 838.26 0.84 837.92 1.19 837.92 C1.28 837.92 1.43 837.93 1.43 838.22 C1.43 838.44 1.32 838.71
								 1.27 838.84 C0.92 839.75 0.73 840.33 0.73 840.78 C0.73 841.65 1.37 841.89 1.86 841.89 C2.47 841.89
								 2.8 841.47 2.96 841.27 Z" class="st18"/>
				</g>
			</g>
			<g id="group257-101" transform="translate(5.92135,1.13687E-13)" v:mID="257" v:groupContext="group">
				<title>g253816</title>
				<g id="group258-102" v:mID="258" v:groupContext="group">
					<title>Tabelle.258</title>
					<g id="shape259-103" v:mID="259" v:groupContext="shape">
						<title>path253496</title>
						<path d="M2.14 841.81 C2.14 841.77 2.14 841.76 1.98 841.6 C0.83 840.44 0.54 838.7 0.54 837.3 C0.54 835.69
									 0.88 834.09 2.02 832.93 C2.14 832.82 2.14 832.81 2.14 832.77 C2.14 832.72 2.1 832.69 2.05 832.69
									 C1.95 832.69 1.12 833.31 0.58 834.49 C0.11 835.49 0 836.52 0 837.3 C0 838.01 0.11 839.12 0.61
									 840.16 C1.16 841.29 1.95 841.89 2.05 841.89 C2.1 841.89 2.14 841.86 2.14 841.81 Z"
								class="st18"/>
					</g>
				</g>
				<g id="group260-105" transform="translate(3.49099,-2.29633)" v:mID="260" v:groupContext="group">
					<title>Tabelle.260</title>
					<g id="shape261-106" v:mID="261" v:groupContext="shape">
						<title>path253487</title>
						<path d="M1.89 835.99 C1.89 835.78 1.89 835.75 1.68 835.75 C1.11 836.35 0.29 836.35 0 836.35 L0 836.62 C0.18
									 836.62 0.73 836.62 1.21 836.39 L1.21 841.16 C1.21 841.49 1.17 841.6 0.36 841.6 L0.05 841.6 L0.05
									 841.89 C0.38 841.86 1.17 841.86 1.54 841.86 C1.91 841.86 2.72 841.86 3.04 841.89 L3.04 841.6
									 L2.75 841.6 C1.91 841.6 1.89 841.51 1.89 841.16 L1.89 835.99 Z" class="st18"/>
					</g>
				</g>
			</g>
			<g id="group262-108" transform="translate(13.9929,-0.514694)" v:mID="262" v:groupContext="group">
				<title>Tabelle.262</title>
				<g id="shape263-109" v:mID="263" v:groupContext="shape">
					<title>path253502</title>
					<path d="M1.08 840.09 C1.08 839.49 0.84 839.13 0.49 839.13 C0.18 839.13 0 839.35 0 839.62 C0 839.87 0.18 840.11
								 0.49 840.11 C0.59 840.11 0.71 840.07 0.81 839.99 C0.84 839.98 0.84 839.96 0.86 839.96 C0.87 839.96
								 0.87 839.98 0.87 840.09 C0.87 840.78 0.55 841.33 0.25 841.64 C0.15 841.74 0.15 841.76 0.15 841.78
								 C0.15 841.85 0.2 841.89 0.24 841.89 C0.34 841.89 1.08 841.18 1.08 840.09 Z" class="st18"/>
				</g>
			</g>
			<g id="group264-111" transform="translate(17.5107,-2.19075)" v:mID="264" v:groupContext="group">
				<title>Tabelle.264</title>
				<g id="shape265-112" v:mID="265" v:groupContext="shape">
					<title>path253511</title>
					<path d="M1.69 838.1 L2.55 838.1 C2.73 838.1 2.82 838.1 2.82 837.92 C2.82 837.81 2.73 837.81 2.57 837.81 L1.76
								 837.81 C2.09 836.5 2.14 836.32 2.14 836.27 C2.14 836.11 2.03 836.02 1.87 836.02 C1.85 836.02 1.58
								 836.03 1.5 836.35 L1.15 837.81 L0.28 837.81 C0.09 837.81 0 837.81 0 837.98 C0 838.1 0.08 838.1 0.26
								 838.1 L1.07 838.1 C0.41 840.71 0.37 840.87 0.37 841.03 C0.37 841.53 0.71 841.89 1.21 841.89 C2.15
								 841.89 2.68 840.54 2.68 840.46 C2.68 840.37 2.61 840.37 2.57 840.37 C2.49 840.37 2.48 840.4 2.43
								 840.5 C2.03 841.47 1.54 841.68 1.24 841.68 C1.04 841.68 0.95 841.56 0.95 841.26 C0.95 841.03 0.96
								 840.98 1 840.82 L1.69 838.1 Z" class="st18"/>
				</g>
			</g>
			<g id="group266-114" transform="translate(21.1507,1.13687E-13)" v:mID="266" v:groupContext="group">
				<title>Tabelle.266</title>
				<g id="shape267-115" v:mID="267" v:groupContext="shape">
					<title>path253493</title>
					<path d="M2.14 837.3 C2.14 836.57 2.03 835.46 1.53 834.42 C0.98 833.28 0.18 832.69 0.09 832.69 C0.04 832.69 0
								 832.72 0 832.77 C0 832.81 0 832.82 0.17 832.99 C1.07 833.9 1.6 835.37 1.6 837.3 C1.6 838.87 1.25
								 840.49 0.12 841.65 C0 841.76 0 841.77 0 841.81 C0 841.86 0.04 841.89 0.09 841.89 C0.18 841.89 1.02
								 841.27 1.56 840.09 C2.02 839.09 2.14 838.06 2.14 837.3 Z" class="st18"/>
				</g>
			</g>
		</g>
		<g id="group273-117" transform="translate(19.231,-779.528)" v:mID="273" v:groupContext="group">
			<title>Tabelle.273</title>
			<g id="group238-118" transform="translate(-4.04676E-14,-2.19075)" v:mID="238" v:groupContext="group">
				<title>Tabelle.238</title>
				<g id="shape239-119" v:mID="239" v:groupContext="shape">
					<title>path253505</title>
					<path d="M2.96 841.27 C3.06 841.65 3.38 841.89 3.77 841.89 C4.1 841.89 4.32 841.68 4.46 841.37 C4.62 841.04 4.74
								 840.49 4.74 840.46 C4.74 840.37 4.66 840.37 4.63 840.37 C4.54 840.37 4.53 840.41 4.5 840.54 C4.37
								 841.06 4.2 841.68 3.81 841.68 C3.62 841.68 3.52 841.56 3.52 841.26 C3.52 841.06 3.63 840.62 3.71
								 840.31 L3.96 839.3 C3.99 839.17 4.08 838.81 4.12 838.68 C4.17 838.47 4.26 838.11 4.26 838.06 C4.26
								 837.89 4.13 837.81 3.99 837.81 C3.95 837.81 3.71 837.82 3.63 838.14 C3.46 838.81 3.05 840.42 2.94
								 840.91 C2.93 840.94 2.56 841.68 1.89 841.68 C1.41 841.68 1.32 841.27 1.32 840.93 C1.32 840.41 1.58
								 839.68 1.82 839.05 C1.93 838.77 1.98 838.64 1.98 838.47 C1.98 838.05 1.68 837.71 1.21 837.71 C0.34
								 837.71 0 839.05 0 839.13 C0 839.22 0.09 839.22 0.12 839.22 C0.21 839.22 0.21 839.21 0.26 839.05
								 C0.49 838.26 0.84 837.92 1.19 837.92 C1.28 837.92 1.43 837.93 1.43 838.22 C1.43 838.44 1.32 838.71
								 1.27 838.84 C0.92 839.75 0.73 840.33 0.73 840.78 C0.73 841.65 1.37 841.89 1.86 841.89 C2.47 841.89
								 2.8 841.47 2.96 841.27 Z" class="st18"/>
				</g>
			</g>
			<g id="group240-121" transform="translate(5.92135,1.13687E-13)" v:mID="240" v:groupContext="group">
				<title>g253786</title>
				<g id="group241-122" v:mID="241" v:groupContext="group">
					<title>Tabelle.241</title>
					<g id="shape242-123" v:mID="242" v:groupContext="shape">
						<title>path253496</title>
						<path d="M2.14 841.81 C2.14 841.77 2.14 841.76 1.98 841.6 C0.83 840.44 0.54 838.7 0.54 837.3 C0.54 835.69
									 0.88 834.09 2.02 832.93 C2.14 832.82 2.14 832.81 2.14 832.77 C2.14 832.72 2.1 832.69 2.05 832.69
									 C1.95 832.69 1.12 833.31 0.58 834.49 C0.11 835.49 0 836.52 0 837.3 C0 838.01 0.11 839.12 0.61
									 840.16 C1.16 841.29 1.95 841.89 2.05 841.89 C2.1 841.89 2.14 841.86 2.14 841.81 Z"
								class="st18"/>
					</g>
				</g>
				<g id="group243-125" transform="translate(3.02909,-2.09837)" v:mID="243" v:groupContext="group">
					<title>Tabelle.243</title>
					<g id="shape244-126" v:mID="244" v:groupContext="shape">
						<title>path253484</title>
						<path d="M3.88 838.75 C3.88 838.01 3.84 837.27 3.51 836.58 C3.09 835.7 2.34 835.55 1.94 835.55 C1.4 835.55
									 0.73 835.79 0.34 836.65 C0.05 837.28 0 838.01 0 838.75 C0 839.43 0.04 840.27 0.42 840.96 C0.82
									 841.7 1.49 841.89 1.94 841.89 C2.43 841.89 3.14 841.7 3.54 840.82 C3.84 840.19 3.88 839.47 3.88
									 838.75 ZM1.94 841.69 C1.58 841.69 1.03 841.47 0.87 840.58 C0.77 840.03 0.77 839.17 0.77 838.63
									 C0.77 838.05 0.77 837.44 0.84 836.94 C1.02 835.84 1.7 835.75 1.94 835.75 C2.24 835.75 2.85 835.92
									 3.02 836.83 C3.11 837.35 3.11 838.05 3.11 838.63 C3.11 839.33 3.11 839.95 3.01 840.54 C2.88
									 841.41 2.35 841.69 1.94 841.69 Z" class="st18"/>
					</g>
				</g>
			</g>
			<g id="group245-128" transform="translate(13.9929,-0.514694)" v:mID="245" v:groupContext="group">
				<title>Tabelle.245</title>
				<g id="shape246-129" v:mID="246" v:groupContext="shape">
					<title>path253502</title>
					<path d="M1.08 840.09 C1.08 839.49 0.84 839.13 0.49 839.13 C0.18 839.13 0 839.35 0 839.62 C0 839.87 0.18 840.11
								 0.49 840.11 C0.59 840.11 0.71 840.07 0.81 839.99 C0.84 839.98 0.84 839.96 0.86 839.96 C0.87 839.96
								 0.87 839.98 0.87 840.09 C0.87 840.78 0.55 841.33 0.25 841.64 C0.15 841.74 0.15 841.76 0.15 841.78
								 C0.15 841.85 0.2 841.89 0.24 841.89 C0.34 841.89 1.08 841.18 1.08 840.09 Z" class="st18"/>
				</g>
			</g>
			<g id="group247-131" transform="translate(17.5107,-2.19075)" v:mID="247" v:groupContext="group">
				<title>Tabelle.247</title>
				<g id="shape248-132" v:mID="248" v:groupContext="shape">
					<title>path253511</title>
					<path d="M1.69 838.1 L2.55 838.1 C2.73 838.1 2.82 838.1 2.82 837.92 C2.82 837.81 2.73 837.81 2.57 837.81 L1.76
								 837.81 C2.09 836.5 2.14 836.32 2.14 836.27 C2.14 836.11 2.03 836.02 1.87 836.02 C1.85 836.02 1.58
								 836.03 1.5 836.35 L1.15 837.81 L0.28 837.81 C0.09 837.81 0 837.81 0 837.98 C0 838.1 0.08 838.1 0.26
								 838.1 L1.07 838.1 C0.41 840.71 0.37 840.87 0.37 841.03 C0.37 841.53 0.71 841.89 1.21 841.89 C2.15
								 841.89 2.68 840.54 2.68 840.46 C2.68 840.37 2.61 840.37 2.57 840.37 C2.49 840.37 2.48 840.4 2.43
								 840.5 C2.03 841.47 1.54 841.68 1.24 841.68 C1.04 841.68 0.95 841.56 0.95 841.26 C0.95 841.03 0.96
								 840.98 1 840.82 L1.69 838.1 Z" class="st18"/>
				</g>
			</g>
			<g id="group249-134" transform="translate(21.1507,1.13687E-13)" v:mID="249" v:groupContext="group">
				<title>Tabelle.249</title>
				<g id="shape250-135" v:mID="250" v:groupContext="shape">
					<title>path253493</title>
					<path d="M2.14 837.3 C2.14 836.57 2.03 835.46 1.53 834.42 C0.98 833.28 0.18 832.69 0.09 832.69 C0.04 832.69 0
								 832.72 0 832.77 C0 832.81 0 832.82 0.17 832.99 C1.07 833.9 1.6 835.37 1.6 837.3 C1.6 838.87 1.25
								 840.49 0.12 841.65 C0 841.76 0 841.77 0 841.81 C0 841.86 0.04 841.89 0.09 841.89 C0.18 841.89 1.02
								 841.27 1.56 840.09 C2.02 839.09 2.14 838.06 2.14 837.3 Z" class="st18"/>
				</g>
			</g>
		</g>
		<g id="group274-137" transform="translate(40.8413,-753.668)" v:mID="274" v:groupContext="group">
			<title>Tabelle.274</title>
			<g id="group214-138" transform="translate(-5.34572E-14,-2.19075)" v:mID="214" v:groupContext="group">
				<title>Tabelle.214</title>
				<g id="shape215-139" v:mID="215" v:groupContext="shape">
					<title>path253505</title>
					<path d="M2.96 841.27 C3.06 841.65 3.38 841.89 3.77 841.89 C4.1 841.89 4.32 841.68 4.46 841.37 C4.62 841.04 4.74
								 840.49 4.74 840.46 C4.74 840.37 4.66 840.37 4.63 840.37 C4.54 840.37 4.53 840.41 4.5 840.54 C4.37
								 841.06 4.2 841.68 3.81 841.68 C3.62 841.68 3.52 841.56 3.52 841.26 C3.52 841.06 3.63 840.62 3.71
								 840.31 L3.96 839.3 C3.99 839.17 4.08 838.81 4.12 838.68 C4.17 838.47 4.26 838.11 4.26 838.06 C4.26
								 837.89 4.13 837.81 3.99 837.81 C3.95 837.81 3.71 837.82 3.63 838.14 C3.46 838.81 3.05 840.42 2.94
								 840.91 C2.93 840.94 2.56 841.68 1.89 841.68 C1.41 841.68 1.32 841.27 1.32 840.93 C1.32 840.41 1.58
								 839.68 1.82 839.05 C1.93 838.77 1.98 838.64 1.98 838.47 C1.98 838.05 1.68 837.71 1.21 837.71 C0.34
								 837.71 0 839.05 0 839.13 C0 839.22 0.09 839.22 0.12 839.22 C0.21 839.22 0.21 839.21 0.26 839.05
								 C0.49 838.26 0.84 837.92 1.19 837.92 C1.28 837.92 1.43 837.93 1.43 838.22 C1.43 838.44 1.32 838.71
								 1.27 838.84 C0.92 839.75 0.73 840.33 0.73 840.78 C0.73 841.65 1.37 841.89 1.86 841.89 C2.47 841.89
								 2.8 841.47 2.96 841.27 Z" class="st19"/>
				</g>
			</g>
			<g id="group216-141" transform="translate(5.92136,1.13687E-13)" v:mID="216" v:groupContext="group">
				<title>Tabelle.216</title>
				<g id="shape217-142" v:mID="217" v:groupContext="shape">
					<title>path253496</title>
					<path d="M2.14 841.81 C2.14 841.77 2.14 841.76 1.98 841.6 C0.83 840.44 0.54 838.7 0.54 837.3 C0.54 835.69 0.88
								 834.09 2.02 832.93 C2.14 832.82 2.14 832.81 2.14 832.77 C2.14 832.72 2.1 832.69 2.05 832.69 C1.95
								 832.69 1.12 833.31 0.58 834.49 C0.11 835.49 0 836.52 0 837.3 C0 838.01 0.11 839.12 0.61 840.16 C1.16
								 841.29 1.95 841.89 2.05 841.89 C2.1 841.89 2.14 841.86 2.14 841.81 Z" class="st19"/>
				</g>
			</g>
			<g id="group218-144" transform="translate(8.85843,-0.514694)" v:mID="218" v:groupContext="group">
				<title>g253750</title>
				<g id="group219-145" transform="translate(-3.44724E-14,-1.67605)" v:mID="219" v:groupContext="group">
					<title>Tabelle.219</title>
					<g id="shape220-146" v:mID="220" v:groupContext="shape">
						<title>path253508</title>
						<path d="M2.81 839 C2.86 838.76 3.07 837.92 3.72 837.92 C3.77 837.92 3.99 837.92 4.18 838.04 C3.93 838.07
									 3.75 838.31 3.75 838.54 C3.75 838.68 3.84 838.85 4.09 838.85 C4.3 838.85 4.59 838.68 4.59 838.33
									 C4.59 837.84 4.05 837.71 3.73 837.71 C3.19 837.71 2.88 838.19 2.77 838.42 C2.53 837.8 2.03 837.71
									 1.77 837.71 C0.82 837.71 0.29 838.91 0.29 839.13 C0.29 839.22 0.38 839.22 0.4 839.22 C0.48 839.22
									 0.5 839.21 0.51 839.12 C0.83 838.14 1.44 837.92 1.76 837.92 C1.93 837.92 2.26 838 2.26 838.54
									 C2.26 838.81 2.1 839.43 1.76 840.73 C1.61 841.29 1.28 841.68 0.88 841.68 C0.82 841.68 0.61 841.68
									 0.42 841.56 C0.65 841.52 0.84 841.32 0.84 841.07 C0.84 840.82 0.65 840.74 0.51 840.74 C0.24
									 840.74 0 840.98 0 841.28 C0 841.7 0.46 841.89 0.87 841.89 C1.48 841.89 1.81 841.24 1.83 841.19
									 C1.95 841.52 2.28 841.89 2.84 841.89 C3.77 841.89 4.3 840.7 4.3 840.46 C4.3 840.37 4.22 840.37
									 4.2 840.37 C4.12 840.37 4.09 840.41 4.08 840.48 C3.77 841.47 3.14 841.68 2.85 841.68 C2.49 841.68
									 2.35 841.39 2.35 841.07 C2.35 840.87 2.4 840.67 2.49 840.27 L2.81 839 Z" class="st19"/>
					</g>
				</g>
				<g id="group221-148" transform="translate(5.79376,1.13687E-13)" v:mID="221" v:groupContext="group">
					<title>Tabelle.221</title>
					<g id="shape222-149" v:mID="222" v:groupContext="shape">
						<title>path253502</title>
						<path d="M1.08 840.09 C1.08 839.49 0.84 839.13 0.49 839.13 C0.18 839.13 0 839.35 0 839.62 C0 839.87 0.18
									 840.11 0.49 840.11 C0.59 840.11 0.71 840.07 0.81 839.99 C0.84 839.98 0.84 839.96 0.86 839.96
									 C0.87 839.96 0.87 839.98 0.87 840.09 C0.87 840.78 0.55 841.33 0.25 841.64 C0.15 841.74 0.15
									 841.76 0.15 841.78 C0.15 841.85 0.2 841.89 0.24 841.89 C0.34 841.89 1.08 841.18 1.08 840.09
									 Z" class="st19"/>
					</g>
				</g>
			</g>
			<g id="group223-151" transform="translate(18.3118,1.13687E-13)" v:mID="223" v:groupContext="group">
				<title>g253756</title>
				<g id="group224-152" transform="translate(0,-2.09837)" v:mID="224" v:groupContext="group">
					<title>Tabelle.224</title>
					<g id="shape225-153" v:mID="225" v:groupContext="shape">
						<title>path253484</title>
						<path d="M3.88 838.75 C3.88 838.01 3.84 837.27 3.51 836.58 C3.09 835.7 2.34 835.55 1.94 835.55 C1.4 835.55
									 0.73 835.79 0.34 836.65 C0.05 837.28 0 838.01 0 838.75 C0 839.43 0.04 840.27 0.42 840.96 C0.82
									 841.7 1.49 841.89 1.94 841.89 C2.43 841.89 3.14 841.7 3.54 840.82 C3.84 840.19 3.88 839.47 3.88
									 838.75 ZM1.94 841.69 C1.58 841.69 1.03 841.47 0.87 840.58 C0.77 840.03 0.77 839.17 0.77 838.63
									 C0.77 838.05 0.77 837.44 0.84 836.94 C1.02 835.84 1.7 835.75 1.94 835.75 C2.24 835.75 2.85 835.92
									 3.02 836.83 C3.11 837.35 3.11 838.05 3.11 838.63 C3.11 839.33 3.11 839.95 3.01 840.54 C2.88
									 841.41 2.35 841.69 1.94 841.69 Z" class="st19"/>
					</g>
				</g>
				<g id="group226-155" transform="translate(4.77862,1.13687E-13)" v:mID="226" v:groupContext="group">
					<title>Tabelle.226</title>
					<g id="shape227-156" v:mID="227" v:groupContext="shape">
						<title>path253493</title>
						<path d="M2.14 837.3 C2.14 836.57 2.03 835.46 1.53 834.42 C0.98 833.28 0.18 832.69 0.09 832.69 C0.04 832.69
									 0 832.72 0 832.77 C0 832.81 0 832.82 0.17 832.99 C1.07 833.9 1.6 835.37 1.6 837.3 C1.6 838.87
									 1.25 840.49 0.12 841.65 C0 841.76 0 841.77 0 841.81 C0 841.86 0.04 841.89 0.09 841.89 C0.18
									 841.89 1.02 841.27 1.56 840.09 C2.02 839.09 2.14 838.06 2.14 837.3 Z" class="st19"/>
					</g>
				</g>
			</g>
		</g>
	</g>
</svg>
