<?xml version="1.0" encoding="UTF-8" standalone="no"?>
<!DOCTYPE svg PUBLIC "-//W3C//DTD SVG 1.1//EN" "http://www.w3.org/Graphics/SVG/1.1/DTD/svg11.dtd">
<!-- Generiert durch Microsoft Visio, SVG Export problem_40b.svg Page-1 -->
<svg xmlns="http://www.w3.org/2000/svg" xmlns:xlink="http://www.w3.org/1999/xlink" xmlns:ev="http://www.w3.org/2001/xml-events"
		xmlns:v="http://schemas.microsoft.com/visio/2003/SVGExtensions/" width="8.26772in" height="11.6929in"
		viewBox="0 0 595.276 841.89" xml:space="preserve" color-interpolation-filters="sRGB" class="st14">
	<v:documentProperties v:langID="1033" v:metric="true" v:viewMarkup="false">
		<v:userDefs>
			<v:ud v:nameU="msvNoAutoConnect" v:val="VT0(1):26"/>
		</v:userDefs>
	</v:documentProperties>

	<style type="text/css">
	<![CDATA[
		.st1 {fill:#f2dcda;stroke:none;stroke-linecap:round;stroke-linejoin:round;stroke-width:0.75}
		.st2 {fill:none;stroke:#009900;stroke-linecap:round;stroke-linejoin:round;stroke-width:0.75}
		.st3 {marker-end:url(#mrkr5-10);stroke:#000000;stroke-linecap:round;stroke-linejoin:round;stroke-width:0.5}
		.st4 {fill:#000000;fill-opacity:1;stroke:#000000;stroke-opacity:1;stroke-width:0.25773195876289}
		.st5 {fill:none;stroke:#0070c0;stroke-linecap:round;stroke-linejoin:round;stroke-width:0.25}
		.st6 {stroke:#0070c0;stroke-linecap:round;stroke-linejoin:round;stroke-width:0.25}
		.st7 {fill:none;stroke:none;stroke-linecap:round;stroke-linejoin:round;stroke-width:0.75}
		.st8 {fill:#000000;font-family:CMU Serif;font-size:0.833336em;font-style:italic}
		.st9 {marker-start:url(#mrkr5-47);stroke:#000000;stroke-linecap:round;stroke-linejoin:round;stroke-width:0.5}
		.st10 {fill:#c00000;stroke:none;stroke-linecap:butt;stroke-width:1}
		.st11 {fill:#009900;stroke:none;stroke-linecap:butt;stroke-width:1}
		.st12 {stroke:#009900;stroke-linecap:round;stroke-linejoin:round;stroke-width:0.75}
		.st13 {stroke:#c00000;stroke-linecap:round;stroke-linejoin:round;stroke-width:0.75}
		.st14 {fill:none;fill-rule:evenodd;font-size:12px;overflow:visible;stroke-linecap:square;stroke-miterlimit:3}
	]]>
	</style>

	<defs id="Markers">
		<g id="lend5">
			<path d="M 2 1 L 0 0 L 1.98117 -0.993387 C 1.67173 -0.364515 1.67301 0.372641 1.98465 1.00043 " style="stroke:none"/>
		</g>
		<marker id="mrkr5-10" class="st4" v:arrowType="5" v:arrowSize="0" v:setback="6.79" refX="-6.79" orient="auto"
				markerUnits="strokeWidth" overflow="visible">
			<use xlink:href="#lend5" transform="scale(-3.88,-3.88) "/>
		</marker>
		<marker id="mrkr5-47" class="st4" v:arrowType="5" v:arrowSize="0" v:setback="6.07" refX="6.07" orient="auto"
				markerUnits="strokeWidth" overflow="visible">
			<use xlink:href="#lend5" transform="scale(3.88) "/>
		</marker>
	</defs>
	<g v:mID="0" v:index="1" v:groupContext="foregroundPage">
		<title>Zeichenblatt-1</title>
		<v:pageProperties v:drawingScale="0.0393701" v:pageScale="0.0393701" v:drawingUnits="24" v:shadowOffsetX="8.50394"
				v:shadowOffsetY="-8.50394"/>
		<g id="shape192-1" v:mID="192" v:groupContext="shape" transform="translate(37.4173,-754.583)">
			<title>Tabelle.192</title>
			<rect x="0" y="803.339" width="78.2362" height="38.5512" class="st1"/>
		</g>
		<g id="shape32-3" v:mID="32" v:groupContext="shape" transform="translate(37.4173,-754.583)">
			<title>Tabelle.32</title>
			<rect x="0" y="803.339" width="78.2362" height="38.5512" class="st2"/>
		</g>
		<g id="shape1-5" v:mID="1" v:groupContext="shape" transform="translate(28.3465,-754.016) rotate(5.38654E-07)">
			<title>Tabelle.1</title>
			<path d="M0 841.89 L99.79 841.89" class="st3"/>
		</g>
		<g id="shape2-11" v:mID="2" v:groupContext="shape" transform="translate(75.1181,-752.598)">
			<title>Tabelle.2</title>
			<ellipse cx="1.41732" cy="840.472" rx="1.41732" ry="1.41732" class="st5"/>
		</g>
		<g id="shape3-13" v:mID="3" v:groupContext="shape" transform="translate(94.9606,-752.598)">
			<title>Tabelle.3</title>
			<ellipse cx="1.41732" cy="840.472" rx="1.41732" ry="1.41732" class="st5"/>
		</g>
		<g id="shape4-15" v:mID="4" v:groupContext="shape" transform="translate(55.2756,-752.598)">
			<title>Tabelle.4</title>
			<ellipse cx="1.41732" cy="840.472" rx="1.41732" ry="1.41732" class="st5"/>
		</g>
		<g id="shape5-17" v:mID="5" v:groupContext="shape" transform="translate(-785.197,87.874) rotate(-90)">
			<title>Tabelle.5</title>
			<path d="M0 841.89 L45.35 841.89" class="st6"/>
		</g>
		<g id="shape6-20" v:mID="6" v:groupContext="shape" transform="translate(-765.354,87.874) rotate(-90)">
			<title>Tabelle.6</title>
			<path d="M0 841.89 L45.35 841.89" class="st6"/>
		</g>
		<g id="shape7-23" v:mID="7" v:groupContext="shape" transform="translate(-745.512,87.874) rotate(-90)">
			<title>Tabelle.7</title>
			<path d="M0 841.89 L45.35 841.89" class="st6"/>
		</g>
		<g id="shape8-26" v:mID="8" v:groupContext="shape" transform="translate(-725.669,87.874) rotate(-90)">
			<title>Tabelle.8</title>
			<path d="M0 841.89 L45.35 841.89" class="st6"/>
		</g>
		<g id="shape9-29" v:mID="9" v:groupContext="shape" transform="translate(28.3465,-773.858)">
			<title>Tabelle.9</title>
			<path d="M0 841.89 L96.38 841.89" class="st6"/>
		</g>
		<g id="shape10-32" v:mID="10" v:groupContext="shape" transform="translate(28.3465,-793.701)">
			<title>Tabelle.10</title>
			<path d="M0 841.89 L96.38 841.89" class="st6"/>
		</g>
		<g id="shape11-35" v:mID="11" v:groupContext="shape" transform="translate(114.803,-772.441)">
			<title>Tabelle.11</title>
			<ellipse cx="1.41732" cy="840.472" rx="1.41732" ry="1.41732" class="st5"/>
		</g>
		<g id="shape12-37" v:mID="12" v:groupContext="shape" transform="translate(35.4331,-792.283)">
			<title>Tabelle.12</title>
			<ellipse cx="1.41732" cy="840.472" rx="1.41732" ry="1.41732" class="st5"/>
		</g>
		<g id="shape13-39" v:mID="13" v:groupContext="shape" transform="translate(131.528,-748.346)">
			<title>Tabelle.13</title>
			<desc>x</desc>
			<v:textBlock v:margins="rect(0,0,0,0)" v:tabSpace="42.5197"/>
			<v:textRect cx="8.50394" cy="836.22" width="17.01" height="11.3386"/>
			<rect x="0" y="830.551" width="17.0079" height="11.3386" class="st7"/>
			<text x="6.18" y="839.22" class="st8" v:langID="1033"><v:paragraph v:horizAlign="1"/><v:tabList/>x</text>		</g>
		<g id="shape16-42" v:mID="16" v:groupContext="shape" transform="translate(878.74,39.685) rotate(90)">
			<title>Tabelle.16</title>
			<path d="M3.03 841.89 L3.39 841.89 L48.19 841.89" class="st9"/>
		</g>
		<g id="shape17-48" v:mID="17" v:groupContext="shape" transform="translate(28.3465,-802.205)">
			<title>Tabelle.17</title>
			<desc>y</desc>
			<v:textBlock v:margins="rect(0,0,0,0)" v:tabSpace="42.5197"/>
			<v:textRect cx="8.50394" cy="836.22" width="17.01" height="11.3386"/>
			<rect x="0" y="830.551" width="17.0079" height="11.3386" class="st7"/>
			<text x="6.08" y="839.22" class="st8" v:langID="2055"><v:paragraph v:horizAlign="1"/><v:tabList/>y</text>		</g>
		<g id="shape23-51" v:mID="23" v:groupContext="shape" transform="translate(94.9606,-792.283)">
			<title>Tabelle.23</title>
			<ellipse cx="1.41732" cy="840.472" rx="1.41732" ry="1.41732" class="st5"/>
		</g>
		<g id="shape24-53" v:mID="24" v:groupContext="shape" transform="translate(75.1181,-792.283)">
			<title>Tabelle.24</title>
			<ellipse cx="1.41732" cy="840.472" rx="1.41732" ry="1.41732" class="st5"/>
		</g>
		<g id="shape25-55" v:mID="25" v:groupContext="shape" transform="translate(55.2756,-792.283)">
			<title>Tabelle.25</title>
			<ellipse cx="1.41732" cy="840.472" rx="1.41732" ry="1.41732" class="st5"/>
		</g>
		<g id="shape26-57" v:mID="26" v:groupContext="shape" transform="translate(94.9606,-772.441)">
			<title>Tabelle.26</title>
			<ellipse cx="1.41732" cy="840.472" rx="1.41732" ry="1.41732" class="st5"/>
		</g>
		<g id="shape27-59" v:mID="27" v:groupContext="shape" transform="translate(75.1181,-772.441)">
			<title>Tabelle.27</title>
			<ellipse cx="1.41732" cy="840.472" rx="1.41732" ry="1.41732" class="st5"/>
		</g>
		<g id="shape28-61" v:mID="28" v:groupContext="shape" transform="translate(55.2756,-772.441)">
			<title>Tabelle.28</title>
			<ellipse cx="1.41732" cy="840.472" rx="1.41732" ry="1.41732" class="st5"/>
		</g>
		<g id="shape29-63" v:mID="29" v:groupContext="shape" transform="translate(114.803,-752.598)">
			<title>Tabelle.29</title>
			<ellipse cx="1.41732" cy="840.472" rx="1.41732" ry="1.41732" class="st5"/>
		</g>
		<g id="shape30-65" v:mID="30" v:groupContext="shape" transform="translate(35.4331,-752.598)">
			<title>Tabelle.30</title>
			<ellipse cx="1.41732" cy="840.472" rx="1.41732" ry="1.41732" class="st5"/>
		</g>
		<g id="shape31-67" v:mID="31" v:groupContext="shape" transform="translate(35.4331,-772.441)">
			<title>Tabelle.31</title>
			<ellipse cx="1.41732" cy="840.472" rx="1.41732" ry="1.41732" class="st5"/>
		</g>
		<g id="group68-69" transform="translate(63.9599,-800.187)" v:mID="68" v:groupContext="group">
			<title>Tabelle.68</title>
			<g id="shape69-70" v:mID="69" v:groupContext="shape">
				<title>path240650</title>
				<path d="M6.91 840.12 L6.63 840.12 C6.58 840.41 6.53 840.66 6.44 840.92 C6.38 841.09 6.34 841.19 5.7 841.19 L4.84
							 841.19 C4.98 840.58 5.31 840.05 5.81 839.33 C6.33 838.55 6.77 837.8 6.77 836.94 C6.77 835.42 5.3 834.2
							 3.45 834.2 C1.58 834.2 0.13 835.44 0.13 836.94 C0.13 837.8 0.58 838.55 1.09 839.33 C1.56 840.05 1.92
							 840.58 2.06 841.19 L1.19 841.19 C0.55 841.19 0.52 841.09 0.47 840.94 C0.38 840.69 0.33 840.39 0.27 840.12
							 L0 840.12 L0.36 841.89 L2.09 841.89 C2.34 841.89 2.38 841.89 2.38 841.66 C2.38 840.89 2.03 839.94 1.78
							 839.23 C1.56 838.61 1.25 837.75 1.25 836.92 C1.25 835.19 2.45 834.44 3.44 834.44 C4.48 834.44 5.64 835.23
							 5.64 836.92 C5.64 837.75 5.34 838.58 5.03 839.47 C4.88 839.92 4.52 840.91 4.52 841.66 C4.52 841.89 4.55
							 841.89 4.81 841.89 L6.55 841.89 L6.91 840.12 Z" class="st10"/>
			</g>
		</g>
		<g id="group190-72" transform="translate(125.548,-780.945)" v:mID="190" v:groupContext="group">
			<title>Tabelle.190</title>
			<g id="group186-73" v:mID="186" v:groupContext="group">
				<title>Tabelle.186</title>
				<g id="shape187-74" v:mID="187" v:groupContext="shape">
					<title>path240719</title>
					<path d="M4.61 837.95 C4.5 837.28 4.06 836.67 3.2 836.67 C2.55 836.67 1.83 836.84 0.98 837.7 C0.08 838.61 0 839.61
								 0 839.95 C0 840.62 0.48 841.89 2 841.89 C4.59 841.89 5.73 838.23 5.73 836.67 C5.73 834.94 4.72 833.84
								 3.38 833.84 C1.8 833.84 1.3 835.26 1.3 835.58 C1.3 835.72 1.39 835.95 1.72 835.95 C2.08 835.95 2.3
								 835.62 2.3 835.37 C2.3 835 1.97 835 1.78 835 C2.27 834.19 3.05 834.12 3.36 834.12 C4.16 834.12 4.92
								 834.69 4.92 836.09 C4.92 836.51 4.86 837.08 4.63 837.95 L4.61 837.95 ZM2.03 841.59 C0.84 841.59
								 0.84 840.47 0.84 840.36 C0.84 840.06 1.11 838.53 1.56 837.87 C2 837.26 2.53 836.91 3.2 836.91 C4.39
								 836.91 4.42 838.14 4.42 838.36 C4.42 839.14 3.72 841.59 2.03 841.59 Z" class="st11"/>
				</g>
			</g>
			<g id="group188-76" transform="translate(6.44388,-0.234375)" v:mID="188" v:groupContext="group">
				<title>Tabelle.188</title>
				<g id="shape189-77" v:mID="189" v:groupContext="shape">
					<title>path240650</title>
					<path d="M6.91 840.12 L6.63 840.12 C6.58 840.41 6.53 840.66 6.44 840.92 C6.38 841.09 6.34 841.19 5.7 841.19 L4.84
								 841.19 C4.98 840.58 5.31 840.05 5.81 839.33 C6.33 838.55 6.77 837.8 6.77 836.94 C6.77 835.42 5.3
								 834.2 3.45 834.2 C1.58 834.2 0.13 835.44 0.13 836.94 C0.13 837.8 0.58 838.55 1.09 839.33 C1.56 840.05
								 1.92 840.58 2.06 841.19 L1.19 841.19 C0.55 841.19 0.52 841.09 0.47 840.94 C0.38 840.69 0.33 840.39
								 0.27 840.12 L0 840.12 L0.36 841.89 L2.09 841.89 C2.34 841.89 2.38 841.89 2.38 841.66 C2.38 840.89
								 2.03 839.94 1.78 839.23 C1.56 838.61 1.25 837.75 1.25 836.92 C1.25 835.19 2.45 834.44 3.44 834.44
								 C4.48 834.44 5.64 835.23 5.64 836.92 C5.64 837.75 5.34 838.58 5.03 839.47 C4.88 839.92 4.52 840.91
								 4.52 841.66 C4.52 841.89 4.55 841.89 4.81 841.89 L6.55 841.89 L6.91 840.12 Z" class="st11"/>
				</g>
			</g>
		</g>
		<g id="shape191-79" v:mID="191" v:groupContext="shape" transform="translate(-196.45,-722.147) rotate(-21.8014)">
			<title>Tabelle.191</title>
			<path d="M0 841.89 L7.63 841.89" class="st12"/>
		</g>
		<g id="shape193-82" v:mID="193" v:groupContext="shape" transform="translate(-746.297,258.762) rotate(-103.431)">
			<title>Tabelle.193</title>
			<path d="M0 841.89 L19.53 841.89" class="st13"/>
		</g>
		<g id="shape196-85" v:mID="196" v:groupContext="shape" transform="translate(124.157,-657.638) rotate(5.38654E-07)">
			<title>Tabelle.196</title>
			<path d="M0 841.89 L99.79 841.89" class="st3"/>
		</g>
		<g id="shape208-90" v:mID="208" v:groupContext="shape" transform="translate(227.339,-651.969)">
			<title>Tabelle.208</title>
			<desc>x</desc>
			<v:textBlock v:margins="rect(0,0,0,0)" v:tabSpace="42.5197"/>
			<v:textRect cx="8.50394" cy="836.22" width="17.01" height="11.3386"/>
			<rect x="0" y="830.551" width="17.0079" height="11.3386" class="st7"/>
			<text x="6.18" y="839.22" class="st8" v:langID="1033"><v:paragraph v:horizAlign="1"/><v:tabList/>x</text>		</g>
		<g id="group229-93" transform="translate(153.295,-689.08) skewX(-45) scale(1.0,0.5)" v:mID="229" v:groupContext="group">
			<title>Tabelle.229</title>
			<g id="shape194-94" v:mID="194" v:groupContext="shape" transform="translate(9.07087,-1.98425)">
				<title>Tabelle.194</title>
				<rect x="0" y="803.339" width="78.2362" height="38.5512" class="st1"/>
			</g>
			<g id="shape195-96" v:mID="195" v:groupContext="shape" transform="translate(9.07087,-1.98425)">
				<title>Tabelle.195</title>
				<rect x="0" y="803.339" width="78.2362" height="38.5512" class="st2"/>
			</g>
			<g id="shape197-98" v:mID="197" v:groupContext="shape" transform="translate(46.7717,0)">
				<title>Tabelle.197</title>
				<ellipse cx="1.41732" cy="840.472" rx="1.41732" ry="1.41732" class="st5"/>
			</g>
			<g id="shape198-100" v:mID="198" v:groupContext="shape" transform="translate(66.6142,-8.72792E-06)">
				<title>Tabelle.198</title>
				<ellipse cx="1.41732" cy="840.472" rx="1.41732" ry="1.41732" class="st5"/>
			</g>
			<g id="shape199-102" v:mID="199" v:groupContext="shape" transform="translate(26.9291,-1.66672E-05)">
				<title>Tabelle.199</title>
				<ellipse cx="1.41732" cy="840.472" rx="1.41732" ry="1.41732" class="st5"/>
			</g>
			<g id="shape200-104" v:mID="200" v:groupContext="shape" transform="translate(-813.543,840.472) rotate(-90)">
				<title>Tabelle.200</title>
				<path d="M0 841.89 L45.35 841.89" class="st6"/>
			</g>
			<g id="shape201-107" v:mID="201" v:groupContext="shape" transform="translate(-793.701,840.472) rotate(-90)">
				<title>Tabelle.201</title>
				<path d="M0 841.89 L45.35 841.89" class="st6"/>
			</g>
			<g id="shape202-110" v:mID="202" v:groupContext="shape" transform="translate(-773.858,840.472) rotate(-90)">
				<title>Tabelle.202</title>
				<path d="M0 841.89 L45.35 841.89" class="st6"/>
			</g>
			<g id="shape203-113" v:mID="203" v:groupContext="shape" transform="translate(-754.016,840.472) rotate(-90)">
				<title>Tabelle.203</title>
				<path d="M0 841.89 L45.35 841.89" class="st6"/>
			</g>
			<g id="shape204-116" v:mID="204" v:groupContext="shape" transform="translate(1.33798E-06,-21.2599)">
				<title>Tabelle.204</title>
				<path d="M0 841.89 L96.38 841.89" class="st6"/>
			</g>
			<g id="shape205-119" v:mID="205" v:groupContext="shape" transform="translate(1.33798E-06,-41.1024)">
				<title>Tabelle.205</title>
				<path d="M0 841.89 L96.38 841.89" class="st6"/>
			</g>
			<g id="shape206-122" v:mID="206" v:groupContext="shape" transform="translate(86.4567,-19.8426)">
				<title>Tabelle.206</title>
				<ellipse cx="1.41732" cy="840.472" rx="1.41732" ry="1.41732" class="st5"/>
			</g>
			<g id="shape207-124" v:mID="207" v:groupContext="shape" transform="translate(7.08661,-39.6851)">
				<title>Tabelle.207</title>
				<ellipse cx="1.41732" cy="840.472" rx="1.41732" ry="1.41732" class="st5"/>
			</g>
			<g id="shape209-126" v:mID="209" v:groupContext="shape" transform="translate(850.394,792.283) rotate(90)">
				<title>Tabelle.209</title>
				<path d="M3.03 841.89 L3.39 841.89 L48.19 841.89" class="st9"/>
			</g>
			<g id="shape210-131" v:mID="210" v:groupContext="shape" transform="translate(2.89768E-14,-49.6063)">
				<title>Tabelle.210</title>
				<desc>y</desc>
				<v:textBlock v:margins="rect(0,0,0,0)" v:tabSpace="42.5197"/>
				<v:textRect cx="8.50394" cy="836.22" width="17.01" height="11.3386"/>
				<rect x="0" y="830.551" width="17.0079" height="11.3386" class="st7"/>
				<text x="6.08" y="839.22" class="st8" v:langID="2055"><v:paragraph v:horizAlign="1"/><v:tabList/>y</text>			</g>
			<g id="shape211-134" v:mID="211" v:groupContext="shape" transform="translate(66.6142,-39.685)">
				<title>Tabelle.211</title>
				<ellipse cx="1.41732" cy="840.472" rx="1.41732" ry="1.41732" class="st5"/>
			</g>
			<g id="shape212-136" v:mID="212" v:groupContext="shape" transform="translate(46.7717,-39.685)">
				<title>Tabelle.212</title>
				<ellipse cx="1.41732" cy="840.472" rx="1.41732" ry="1.41732" class="st5"/>
			</g>
			<g id="shape213-138" v:mID="213" v:groupContext="shape" transform="translate(26.9291,-39.685)">
				<title>Tabelle.213</title>
				<ellipse cx="1.41732" cy="840.472" rx="1.41732" ry="1.41732" class="st5"/>
			</g>
			<g id="shape214-140" v:mID="214" v:groupContext="shape" transform="translate(66.6142,-19.8425)">
				<title>Tabelle.214</title>
				<ellipse cx="1.41732" cy="840.472" rx="1.41732" ry="1.41732" class="st5"/>
			</g>
			<g id="shape215-142" v:mID="215" v:groupContext="shape" transform="translate(46.7717,-19.8425)">
				<title>Tabelle.215</title>
				<ellipse cx="1.41732" cy="840.472" rx="1.41732" ry="1.41732" class="st5"/>
			</g>
			<g id="shape216-144" v:mID="216" v:groupContext="shape" transform="translate(26.9291,-19.8425)">
				<title>Tabelle.216</title>
				<ellipse cx="1.41732" cy="840.472" rx="1.41732" ry="1.41732" class="st5"/>
			</g>
			<g id="shape217-146" v:mID="217" v:groupContext="shape" transform="translate(86.4567,-1.02205E-06)">
				<title>Tabelle.217</title>
				<ellipse cx="1.41732" cy="840.472" rx="1.41732" ry="1.41732" class="st5"/>
			</g>
			<g id="shape218-148" v:mID="218" v:groupContext="shape" transform="translate(7.08661,-1.66672E-05)">
				<title>Tabelle.218</title>
				<ellipse cx="1.41732" cy="840.472" rx="1.41732" ry="1.41732" class="st5"/>
			</g>
			<g id="shape219-150" v:mID="219" v:groupContext="shape" transform="translate(7.08661,-19.8425)">
				<title>Tabelle.219</title>
				<ellipse cx="1.41732" cy="840.472" rx="1.41732" ry="1.41732" class="st5"/>
			</g>
		</g>
	</g>
</svg>
